<svg width="229" height="83" viewBox="0 0 229 83" fill="none" xmlns="http://www.w3.org/2000/svg">
<rect width="229" height="83" rx="14" fill="#DA6161"/>
<path d="M77.916 51.82C78.748 51.5773 79.164 51.3867 79.164 51.248C79.164 51.144 79.0947 51.04 78.956 50.936C78.6787 50.6933 78.488 50.7107 78.384 50.988C78.2453 51.2653 78.02 51.3173 77.708 51.144C77.3613 50.9707 77.188 51.0573 77.188 51.404C77.188 51.7853 77.4307 51.924 77.916 51.82ZM79.892 50.468C79.892 50.3987 79.84 50.364 79.736 50.364C79.632 50.364 79.58 50.3987 79.58 50.468C79.58 50.572 79.632 50.624 79.736 50.624C79.84 50.624 79.892 50.572 79.892 50.468ZM77.188 49.428C77.188 49.324 77.136 49.272 77.032 49.272C76.9627 49.272 76.928 49.324 76.928 49.428C76.928 49.4973 76.9627 49.532 77.032 49.532C77.136 49.532 77.188 49.4973 77.188 49.428ZM76.668 49.428C76.668 49.324 76.616 49.272 76.512 49.272C76.4427 49.272 76.408 49.324 76.408 49.428C76.408 49.4973 76.4427 49.532 76.512 49.532C76.616 49.532 76.668 49.4973 76.668 49.428ZM77.552 48.648C77.6213 48.7173 77.708 48.7347 77.812 48.7C78.02 48.6307 78.0547 48.5787 77.916 48.544C77.8467 48.5093 77.7773 48.492 77.708 48.492C77.5 48.492 77.448 48.544 77.552 48.648ZM75.056 47.556C75.056 47.452 75.004 47.4 74.9 47.4C74.8307 47.4 74.796 47.452 74.796 47.556C74.796 47.6253 74.8307 47.66 74.9 47.66C75.004 47.66 75.056 47.6253 75.056 47.556ZM77.708 47.452C77.708 47.244 77.6387 47.14 77.5 47.14C77.3267 47.14 77.292 47.3133 77.396 47.66C77.4653 47.972 77.552 48.1453 77.656 48.18C77.76 48.2147 77.9507 48.1453 78.228 47.972C78.436 47.7987 78.488 47.608 78.384 47.4C78.28 47.2267 78.1413 47.244 77.968 47.452C77.7947 47.7293 77.708 47.7293 77.708 47.452ZM79.06 46.724C79.06 46.6547 79.0253 46.62 78.956 46.62C78.852 46.62 78.8 46.6547 78.8 46.724C78.8 46.828 78.852 46.88 78.956 46.88C79.0253 46.88 79.06 46.828 79.06 46.724ZM76.252 46.62C76.356 46.62 76.408 46.568 76.408 46.464C76.408 46.36 76.356 46.308 76.252 46.308C76.148 46.308 76.096 46.36 76.096 46.464C76.096 46.568 76.148 46.62 76.252 46.62ZM87.12 46.204C87.12 46.1 87.068 46.048 86.964 46.048C86.8947 46.048 86.86 46.1 86.86 46.204C86.86 46.2733 86.8947 46.308 86.964 46.308C87.068 46.308 87.12 46.2733 87.12 46.204ZM77.968 46.152C77.968 45.9093 77.8467 45.788 77.604 45.788C77.3613 45.788 77.188 45.9267 77.084 46.204C77.0147 46.4467 77.1013 46.6027 77.344 46.672C77.76 46.88 77.968 46.7067 77.968 46.152ZM86.288 44.072C86.288 44.28 86.3573 44.384 86.496 44.384C86.6347 44.384 86.756 44.332 86.86 44.228C86.9987 44.0893 87.068 43.968 87.068 43.864C87.068 43.7253 86.964 43.656 86.756 43.656C86.444 43.656 86.288 43.7947 86.288 44.072ZM89.408 43.396C89.6853 43.396 89.772 43.3093 89.668 43.136C89.5987 42.928 89.512 42.824 89.408 42.824C89.3387 42.824 89.252 42.876 89.148 42.98C89.0787 43.084 89.044 43.188 89.044 43.292C89.0787 43.3613 89.2 43.396 89.408 43.396ZM86.028 42.72C86.028 42.616 85.9933 42.564 85.924 42.564C85.82 42.564 85.768 42.616 85.768 42.72C85.768 42.7893 85.82 42.824 85.924 42.824C85.9933 42.824 86.028 42.7893 86.028 42.72ZM75.316 42.72C75.316 42.616 75.264 42.564 75.16 42.564C75.0907 42.564 75.056 42.616 75.056 42.72C75.056 42.7893 75.0907 42.824 75.16 42.824C75.264 42.824 75.316 42.7893 75.316 42.72ZM74.484 42.148C74.484 42.0787 74.4493 42.044 74.38 42.044C74.276 42.044 74.224 42.0787 74.224 42.148C74.224 42.252 74.276 42.304 74.38 42.304C74.4493 42.304 74.484 42.252 74.484 42.148ZM76.096 42.824C76.096 42.5467 76.0093 42.2867 75.836 42.044C75.6627 41.8013 75.576 41.8013 75.576 42.044C75.576 42.3213 75.6627 42.5813 75.836 42.824C76.0093 43.0667 76.096 43.0667 76.096 42.824ZM88.16 40.276C88.16 40.2067 88.0733 40.172 87.9 40.172C87.7267 40.172 87.64 40.2587 87.64 40.432C87.64 40.7093 87.7787 40.7093 88.056 40.432L88.16 40.276ZM77.864 40.276C77.864 40.2413 77.8467 40.224 77.812 40.224C77.812 40.224 77.812 40.2067 77.812 40.172C77.812 40.068 77.8813 39.9293 78.02 39.756C78.1587 39.548 78.228 39.4267 78.228 39.392C78.228 39.3573 77.9853 39.4787 77.5 39.756C76.8067 40.1027 76.46 40.38 76.46 40.588L76.616 40.692C76.7893 40.692 76.8587 40.796 76.824 41.004C76.7893 41.1773 76.772 41.2987 76.772 41.368C76.772 41.4027 76.9627 41.2987 77.344 41.056C77.76 40.744 77.9333 40.484 77.864 40.276ZM75.056 39.652C75.056 39.444 74.952 39.34 74.744 39.34C74.4667 39.34 74.484 39.496 74.796 39.808L74.952 39.912C75.0213 39.912 75.056 39.8253 75.056 39.652ZM74.172 39.288C74.3107 39.1493 74.3107 39.028 74.172 38.924C74.0333 38.7853 73.964 38.8373 73.964 39.08C73.964 39.184 73.9813 39.2707 74.016 39.34C74.0853 39.3747 74.1373 39.3573 74.172 39.288ZM77.292 39.548C77.396 39.444 77.396 39.2533 77.292 38.976C77.188 38.6987 77.032 38.56 76.824 38.56C76.4773 38.56 76.304 38.7333 76.304 39.08C76.304 39.2533 76.4253 39.392 76.668 39.496C77.0147 39.6 77.2227 39.6173 77.292 39.548ZM91.956 38.352C91.0547 38.352 90.604 38.5253 90.604 38.872C90.604 39.0107 90.656 39.08 90.76 39.08C90.8293 39.08 91.228 38.8373 91.956 38.352ZM79.06 38.404C79.06 38.3347 79.0253 38.3 78.956 38.3C78.852 38.3 78.8 38.3347 78.8 38.404C78.8 38.508 78.852 38.56 78.956 38.56C79.0253 38.56 79.06 38.508 79.06 38.404ZM88.316 38.404C88.4547 38.4733 88.5413 38.4907 88.576 38.456C88.6453 38.352 88.5587 38.2307 88.316 38.092L88.16 38.04C87.8133 38.04 87.8133 38.1267 88.16 38.3L88.316 38.404ZM89.512 37.728C89.2693 37.728 89.2173 37.7973 89.356 37.936C89.4947 38.0747 89.616 38.0747 89.72 37.936C89.6853 37.832 89.616 37.7627 89.512 37.728ZM77.188 37.832C77.188 37.5893 77.0493 37.676 76.772 38.092C76.7373 38.196 76.72 38.248 76.72 38.248C76.72 38.248 76.772 38.2307 76.876 38.196C77.084 38.092 77.188 37.9707 77.188 37.832ZM76.668 37.624C76.668 37.52 76.616 37.468 76.512 37.468C76.4427 37.468 76.408 37.52 76.408 37.624C76.408 37.6933 76.4427 37.728 76.512 37.728C76.616 37.728 76.668 37.6933 76.668 37.624ZM92.944 37.676C93.0827 37.5373 93.0827 37.416 92.944 37.312C92.8053 37.1733 92.736 37.2253 92.736 37.468C92.736 37.572 92.7533 37.6413 92.788 37.676C92.8227 37.7107 92.8747 37.7107 92.944 37.676ZM89.408 37.208C89.5467 37.208 89.4947 37.0693 89.252 36.792L89.096 36.688C88.9573 36.688 89.0093 36.8267 89.252 37.104L89.408 37.208ZM76.928 36.012C77.0667 35.7 76.9627 35.388 76.616 35.076C76.4427 35.908 76.4947 36.4107 76.772 36.584C76.9453 36.688 76.98 36.6707 76.876 36.532C76.8067 36.4973 76.772 36.428 76.772 36.324C76.8067 36.1853 76.8587 36.0813 76.928 36.012ZM78.28 34.92C78.28 34.8507 78.228 34.816 78.124 34.816C78.02 34.816 77.968 34.8507 77.968 34.92C77.968 35.024 78.02 35.076 78.124 35.076C78.228 35.076 78.28 35.024 78.28 34.92ZM90.344 34.816C90.344 35.0587 90.396 35.1107 90.5 34.972C90.604 34.8333 90.604 34.712 90.5 34.608C90.4307 34.608 90.3787 34.6773 90.344 34.816ZM76.928 34.66C76.928 34.5907 76.876 34.556 76.772 34.556C76.7027 34.556 76.668 34.5907 76.668 34.66C76.668 34.764 76.7027 34.816 76.772 34.816C76.876 34.816 76.928 34.764 76.928 34.66ZM91.384 34.556C91.384 34.348 91.2973 34.244 91.124 34.244C90.8813 34.244 90.8467 34.3827 91.02 34.66L91.28 34.816C91.3493 34.816 91.384 34.7293 91.384 34.556ZM75.576 34.92C75.7493 35.024 75.8707 34.92 75.94 34.608C76.0093 34.3653 75.94 34.244 75.732 34.244C75.524 34.244 75.4027 34.3307 75.368 34.504C75.3333 34.6773 75.4027 34.816 75.576 34.92ZM90.344 33.984C90.344 34.1573 90.3787 34.244 90.448 34.244C90.552 34.244 90.5867 34.14 90.552 33.932L90.5 33.828C90.396 33.724 90.344 33.776 90.344 33.984ZM86.548 32.528C86.548 32.424 86.5133 32.372 86.444 32.372C86.34 32.372 86.288 32.424 86.288 32.528C86.288 32.5973 86.34 32.632 86.444 32.632C86.5133 32.632 86.548 32.5973 86.548 32.528ZM87.12 35.492C86.808 35.388 86.08 34.7987 84.936 33.724C83.792 32.6493 83.1853 32.112 83.116 32.112V32.216C83.1853 32.2853 83.22 32.3547 83.22 32.424C83.22 32.5627 82.8733 32.7187 82.18 32.892C81.4867 33.0307 80.9147 33.1 80.464 33.1C80.256 33.1 80.1347 33.0827 80.1 33.048C80.0653 33.0133 79.996 32.996 79.892 32.996C79.5107 32.996 79.32 33.568 79.32 34.712C79.32 35.44 79.1813 35.856 78.904 35.96C78.7307 36.0293 78.644 36.1333 78.644 36.272C78.644 36.4107 78.696 36.4973 78.8 36.532C78.904 36.5667 79.0253 36.5667 79.164 36.532H79.216C79.3893 36.532 79.4933 37.0693 79.528 38.144V38.768C79.528 39.4267 79.4413 39.756 79.268 39.756C79.2333 39.756 79.216 39.756 79.216 39.756C79.216 39.7213 79.1987 39.704 79.164 39.704C78.9213 39.6 78.8 39.6347 78.8 39.808C78.7653 40.0507 78.9387 40.2587 79.32 40.432C79.6667 40.64 79.788 40.8827 79.684 41.16C79.58 41.4373 79.476 41.472 79.372 41.264C79.3373 41.056 79.164 40.952 78.852 40.952C78.54 40.952 78.7133 41.16 79.372 41.576C79.9267 41.9227 80.412 42.096 80.828 42.096C80.8973 42.096 81.4867 42.0267 82.596 41.888C84.572 41.6107 85.82 41.264 86.34 40.848C86.86 40.3973 87.1373 39.496 87.172 38.144C87.172 37.936 87.1893 37.676 87.224 37.364L87.276 36.74V36.792C87.4493 37.3467 87.6053 37.624 87.744 37.624C87.8133 37.624 87.848 37.5027 87.848 37.26V37C87.7787 36.4453 87.6747 36.168 87.536 36.168C87.3973 36.168 87.38 36.0813 87.484 35.908C87.588 35.7347 87.4667 35.596 87.12 35.492ZM81.348 31.072C81.4173 31.072 81.452 31.02 81.452 30.916C81.452 30.812 81.4173 30.76 81.348 30.76C81.244 30.76 81.192 30.812 81.192 30.916C81.192 31.02 81.244 31.072 81.348 31.072ZM80.412 30.864C80.62 30.9333 80.7413 30.9507 80.776 30.916C80.8453 30.8467 80.7587 30.7253 80.516 30.552C80.412 30.5173 80.3253 30.5 80.256 30.5C80.048 30.5 79.9267 30.5347 79.892 30.604C79.892 30.6733 80.0653 30.76 80.412 30.864ZM79.424 29.616C79.4933 29.5813 79.6667 29.564 79.944 29.564C80.6373 29.564 81.764 29.668 83.324 29.876C84.052 29.98 84.416 30.1187 84.416 30.292C84.416 30.4307 84.5893 30.5 84.936 30.5C85.5253 30.5 86.3747 30.7773 87.484 31.332C87.796 31.3667 88.3333 31.54 89.096 31.852C89.8933 32.1293 90.3787 32.3547 90.552 32.528C90.5867 32.5627 90.7427 32.7013 91.02 32.944C91.2973 33.152 91.5227 33.3253 91.696 33.464C92.216 33.8453 92.372 34.2267 92.164 34.608C91.9907 34.9547 91.956 35.18 92.06 35.284C92.1293 35.2493 92.1813 35.1973 92.216 35.128C92.216 34.92 92.3027 34.816 92.476 34.816C92.6493 34.816 92.736 34.92 92.736 35.128C92.736 35.3707 92.8747 35.6307 93.152 35.908C93.568 36.3933 93.776 37.468 93.776 39.132C93.776 39.7213 93.724 40.0853 93.62 40.224C93.412 40.5013 93.256 40.848 93.152 41.264C93.048 41.6453 92.5973 42.3387 91.8 43.344C91.0027 44.3493 90.448 44.904 90.136 45.008C89.8587 45.112 89.72 45.2333 89.72 45.372C89.6853 45.6147 89.3387 45.8747 88.68 46.152C88.0213 46.4293 87.4493 46.568 86.964 46.568C86.6867 46.568 86.548 46.4987 86.548 46.36C86.548 46.152 86.4613 46.048 86.288 46.048C86.08 46.048 86.0453 46.1693 86.184 46.412C86.288 46.62 86.0973 46.7587 85.612 46.828C85.3347 46.8627 85.1613 46.8627 85.092 46.828C85.0227 46.7587 85.0573 46.6373 85.196 46.464C85.092 46.256 84.8667 46.1347 84.52 46.1C83.3067 46.1 82.024 45.8747 80.672 45.424C79.9787 45.1813 79.528 45.06 79.32 45.06C79.1467 45.06 79.06 45.216 79.06 45.528C79.06 45.8747 79.164 46.048 79.372 46.048C79.5107 46.048 79.5453 45.9613 79.476 45.788C79.4413 45.6147 79.5107 45.528 79.684 45.528C79.9613 45.528 80.1693 45.7187 80.308 46.1C80.412 46.4813 80.464 47.712 80.464 49.792C80.464 52.3227 80.3947 53.6747 80.256 53.848C80.152 54.0213 79.8747 54.108 79.424 54.108C79.008 54.108 78.8 54.212 78.8 54.42C78.8 54.628 78.7133 54.628 78.54 54.42C78.436 54.1773 78.1587 54.0907 77.708 54.16C77.604 54.1947 77.448 54.212 77.24 54.212C76.3733 54.212 75.94 53.9693 75.94 53.484C75.94 53.38 75.9573 53.3107 75.992 53.276C76.0613 52.9987 76.0613 52.8427 75.992 52.808C75.9573 52.7733 75.784 52.7733 75.472 52.808C75.0213 52.912 74.796 52.7907 74.796 52.444C74.796 52.3053 74.9173 52.0627 75.16 51.716C75.4027 51.3347 75.524 51.0573 75.524 50.884C75.524 50.78 75.5067 50.7107 75.472 50.676C75.368 50.364 75.1773 50.3813 74.9 50.728C74.692 51.0053 74.5707 51.0227 74.536 50.78L74.484 49.844C74.484 49.012 74.536 48.596 74.64 48.596L74.9 48.752C75.0733 48.8907 75.1773 48.9427 75.212 48.908C75.2813 48.8733 75.316 48.7347 75.316 48.492C75.316 48.076 75.1773 47.92 74.9 48.024C74.6227 48.128 74.5013 48.0413 74.536 47.764C74.5707 47.5213 74.692 47.3133 74.9 47.14C75.1773 46.8973 75.264 46.5507 75.16 46.1C75.0213 45.5453 74.9 45.268 74.796 45.268C74.7267 45.268 74.6227 45.3547 74.484 45.528C74.3107 45.7707 74.224 45.7707 74.224 45.528C74.224 45.1813 74.172 44.8347 74.068 44.488C74.0333 44.176 74.068 44.02 74.172 44.02C74.276 44.0893 74.38 44.072 74.484 43.968C74.588 43.8293 74.6573 43.6907 74.692 43.552C74.7267 43.3787 74.7093 43.2227 74.64 43.084C74.536 42.9107 74.3973 42.876 74.224 42.98C74.1547 43.0147 74.0853 42.9627 74.016 42.824C73.9813 42.6507 73.964 42.4253 73.964 42.148C73.9987 41.5933 74.0853 41.3333 74.224 41.368C74.328 41.4373 74.3973 41.368 74.432 41.16C74.4667 41.056 74.484 40.952 74.484 40.848C74.484 40.3973 74.3627 40.172 74.12 40.172C73.8427 40.172 73.704 39.704 73.704 38.768C73.704 37.9013 73.7733 37.5027 73.912 37.572C73.9813 37.6413 74.0853 37.6413 74.224 37.572C74.3973 37.5027 74.5013 37.3987 74.536 37.26C74.6053 37.1213 74.588 36.9653 74.484 36.792C74.3453 36.6187 74.3453 36.4627 74.484 36.324C74.6573 36.1507 74.6573 35.96 74.484 35.752C74.3107 35.5093 74.3627 35.2493 74.64 34.972C74.9173 34.6947 74.8827 34.556 74.536 34.556C74.224 34.556 74.016 34.7467 73.912 35.128C73.808 35.3707 73.756 35.2667 73.756 34.816C73.756 34.088 74.3107 33.724 75.42 33.724H75.992H76.46C76.7373 33.724 76.876 33.7067 76.876 33.672C76.876 33.4987 76.5467 33.412 75.888 33.412C75.3333 33.3427 75.056 33.204 75.056 32.996C75.056 32.8227 75.1427 32.7533 75.316 32.788C75.4893 32.8227 75.576 32.7707 75.576 32.632C75.576 32.4587 75.3853 32.424 75.004 32.528C74.6573 32.5973 74.484 32.5627 74.484 32.424C74.484 32.216 74.588 32.112 74.796 32.112C74.9 32.112 74.9347 32.06 74.9 31.956C74.9 31.8173 74.8653 31.696 74.796 31.592C74.7267 31.488 74.7093 31.4013 74.744 31.332C74.8133 31.2627 74.952 31.28 75.16 31.384C75.5067 31.5227 75.784 31.592 75.992 31.592C76.2693 31.592 76.408 31.7307 76.408 32.008C76.408 32.2853 76.5293 32.3547 76.772 32.216C77.0147 32.112 77.0667 31.8347 76.928 31.384C76.7893 30.864 76.9107 30.4827 77.292 30.24C77.5347 30.032 77.708 29.928 77.812 29.928C77.9507 29.928 78.124 30.032 78.332 30.24C78.5747 30.4827 78.6787 30.6387 78.644 30.708C78.644 30.7427 78.5053 30.7947 78.228 30.864C77.9853 30.9333 77.8467 31.0373 77.812 31.176C77.7773 31.28 77.8293 31.3493 77.968 31.384C78.2107 31.384 78.4533 31.332 78.696 31.228C79.1467 30.9853 79.3373 30.6907 79.268 30.344C79.1987 29.928 79.2507 29.6853 79.424 29.616ZM103.666 52.86C103.666 52.8947 103.648 52.912 103.614 52.912C103.614 52.912 103.614 52.9293 103.614 52.964C103.614 53.068 103.7 53.172 103.874 53.276C104.082 53.38 104.255 53.432 104.394 53.432C104.463 53.432 104.498 53.3973 104.498 53.328C104.498 53.224 104.394 53.1027 104.186 52.964C103.943 52.7213 103.77 52.6867 103.666 52.86ZM98.3618 49.792C98.3618 49.584 98.2404 49.6187 97.9978 49.896C97.9978 49.9307 97.9804 49.9653 97.9458 50C97.8764 50.104 97.8418 50.1733 97.8418 50.208C97.8764 50.208 97.9458 50.1733 98.0498 50.104C98.2578 50 98.3618 49.896 98.3618 49.792ZM98.6738 41.732C98.6738 41.6627 98.6218 41.628 98.5178 41.628C98.4138 41.628 98.3618 41.6627 98.3618 41.732C98.3618 41.836 98.4138 41.888 98.5178 41.888C98.6218 41.888 98.6738 41.836 98.6738 41.732ZM101.638 35.804C101.638 35.7347 101.586 35.7 101.482 35.7C101.378 35.7 101.326 35.7347 101.326 35.804C101.326 35.908 101.378 35.96 101.482 35.96C101.586 35.96 101.638 35.908 101.638 35.804ZM98.7258 35.856C98.8298 35.96 98.9511 35.96 99.0898 35.856C99.2284 35.752 99.1764 35.7 98.9338 35.7C98.7951 35.7347 98.7258 35.7867 98.7258 35.856ZM101.638 35.284C101.638 35.18 101.586 35.128 101.482 35.128C101.378 35.128 101.326 35.18 101.326 35.284C101.326 35.3533 101.378 35.388 101.482 35.388C101.586 35.388 101.638 35.3533 101.638 35.284ZM102.99 30.656C102.99 30.448 102.886 30.4653 102.678 30.708C102.608 30.7427 102.556 30.7947 102.522 30.864C102.452 30.968 102.418 31.0373 102.418 31.072C102.452 31.072 102.522 31.0373 102.626 30.968C102.868 30.8293 102.99 30.7253 102.99 30.656ZM99.1938 30.708C99.1938 30.604 99.1418 30.552 99.0378 30.552C98.9684 30.552 98.9338 30.604 98.9338 30.708C98.9338 30.7773 98.9684 30.812 99.0378 30.812C99.1418 30.812 99.1938 30.7773 99.1938 30.708ZM99.5058 29.252C99.8178 28.94 100.216 28.9747 100.702 29.356C100.944 29.5293 101.048 29.6333 101.014 29.668C100.979 29.7027 100.771 29.7373 100.39 29.772L99.9738 29.824C99.9738 29.8587 100.164 29.9107 100.546 29.98C100.65 30.0147 100.736 30.032 100.806 30.032C101.568 30.1707 102.019 30.1533 102.158 29.98C102.331 29.7027 102.643 29.7893 103.094 30.24C103.579 30.656 103.926 30.7773 104.134 30.604C104.272 30.5 104.359 30.448 104.394 30.448C104.463 30.448 104.515 30.4827 104.55 30.552C104.619 30.6213 104.688 30.7773 104.758 31.02C104.896 31.5747 104.966 35.3707 104.966 42.408C104.966 48.232 104.896 51.7853 104.758 53.068C104.619 54.316 104.186 55.2693 103.458 55.928C102.972 56.3787 102.539 56.5 102.158 56.292C101.776 56.1187 101.707 55.9107 101.95 55.668C102.123 55.4947 102.071 55.4427 101.794 55.512C101.724 55.512 101.586 55.5467 101.378 55.616C101.031 55.6853 100.806 55.72 100.702 55.72C100.32 55.72 99.8524 55.5813 99.2978 55.304C98.5351 54.9573 98.0498 54.6107 97.8418 54.264C97.7378 54.056 97.6858 52.704 97.6858 50.208C97.6858 45.424 97.7898 42.148 97.9978 40.38C98.0671 39.7213 98.1884 37.8147 98.3618 34.66C98.3964 34.452 98.4311 34.3307 98.4658 34.296C98.5351 34.2267 98.6391 34.2093 98.7778 34.244C99.0551 34.3827 99.1938 34.3307 99.1938 34.088C99.1938 33.88 99.0551 33.776 98.7778 33.776C98.5351 33.776 98.3964 33.4467 98.3618 32.788V32.112C98.3618 31.176 98.5178 30.604 98.8298 30.396C99.0724 30.2227 99.1938 30.032 99.1938 29.824C99.1938 29.6507 99.2978 29.46 99.5058 29.252ZM125.673 57.176C125.673 57.1067 125.638 57.072 125.569 57.072C125.465 57.072 125.413 57.1067 125.413 57.176C125.413 57.28 125.465 57.332 125.569 57.332C125.638 57.332 125.673 57.28 125.673 57.176ZM121.409 56.344C121.409 56.136 121.305 56.1533 121.097 56.396L120.941 56.552C120.906 56.656 120.889 56.7253 120.889 56.76C120.889 56.76 120.941 56.7253 121.045 56.656C121.287 56.5173 121.409 56.4133 121.409 56.344ZM119.537 55.564C119.537 55.4947 119.485 55.46 119.381 55.46C119.277 55.46 119.225 55.4947 119.225 55.564C119.225 55.668 119.277 55.72 119.381 55.72C119.485 55.72 119.537 55.668 119.537 55.564ZM127.285 54.784C127.285 54.68 127.233 54.628 127.129 54.628C127.059 54.628 127.025 54.68 127.025 54.784C127.025 54.8533 127.059 54.888 127.129 54.888C127.233 54.888 127.285 54.8533 127.285 54.784ZM124.789 54.836C124.927 54.6973 124.927 54.576 124.789 54.472C124.65 54.3333 124.581 54.3853 124.581 54.628C124.581 54.732 124.598 54.8013 124.633 54.836C124.702 54.8707 124.754 54.8707 124.789 54.836ZM112.621 52.392C112.725 52.496 112.846 52.496 112.985 52.392C113.123 52.288 113.071 52.236 112.829 52.236C112.69 52.2707 112.621 52.3227 112.621 52.392ZM109.865 52.34C109.865 52.2707 109.813 52.236 109.709 52.236C109.639 52.236 109.605 52.2707 109.605 52.34C109.605 52.444 109.639 52.496 109.709 52.496C109.813 52.496 109.865 52.444 109.865 52.34ZM114.961 51.56C114.961 51.456 114.909 51.404 114.805 51.404C114.735 51.404 114.701 51.456 114.701 51.56C114.701 51.6293 114.735 51.664 114.805 51.664C114.909 51.664 114.961 51.6293 114.961 51.56ZM121.929 51.248C121.929 51.1787 121.842 51.144 121.669 51.144C121.495 51.144 121.409 51.248 121.409 51.456C121.409 51.6987 121.547 51.6813 121.825 51.404L121.929 51.248ZM127.545 50.884C127.302 50.884 127.25 50.9533 127.389 51.092C127.527 51.2307 127.649 51.2307 127.753 51.092C127.718 50.988 127.649 50.9187 127.545 50.884ZM112.569 51.144C112.569 51.3173 112.603 51.404 112.673 51.404C112.777 51.404 112.811 51.3 112.777 51.092L112.725 50.988C112.621 50.884 112.569 50.936 112.569 51.144ZM109.865 50.728C109.865 50.6587 109.813 50.624 109.709 50.624C109.639 50.624 109.605 50.6587 109.605 50.728C109.605 50.832 109.639 50.884 109.709 50.884C109.813 50.884 109.865 50.832 109.865 50.728ZM126.193 50.208C126.193 50.1387 126.071 50.104 125.829 50.104C125.551 50.104 125.413 50.1907 125.413 50.364C125.413 50.6067 125.621 50.5893 126.037 50.312L126.193 50.208ZM127.961 50.104C128.065 50.104 128.117 50.052 128.117 49.948C128.117 49.844 128.065 49.792 127.961 49.792C127.857 49.792 127.805 49.844 127.805 49.948C127.805 50.052 127.857 50.104 127.961 50.104ZM122.449 49.792C122.206 49.792 122.154 49.8613 122.293 50C122.431 50.1387 122.553 50.1387 122.657 50C122.622 49.896 122.553 49.8267 122.449 49.792ZM114.285 50.104C114.389 50.104 114.441 50.052 114.441 49.948C114.441 49.844 114.389 49.792 114.285 49.792C114.181 49.792 114.129 49.844 114.129 49.948C114.129 50.052 114.181 50.104 114.285 50.104ZM111.633 50.104C111.217 49.7573 110.991 49.6533 110.957 49.792C110.957 50 111.147 50.1907 111.529 50.364L111.997 50.52C111.962 50.4853 111.841 50.3467 111.633 50.104ZM122.449 49.428C122.449 49.324 122.414 49.272 122.345 49.272C122.241 49.272 122.189 49.324 122.189 49.428C122.189 49.4973 122.241 49.532 122.345 49.532C122.414 49.532 122.449 49.4973 122.449 49.428ZM111.997 49.428C111.997 49.324 111.962 49.272 111.893 49.272C111.789 49.272 111.737 49.324 111.737 49.428C111.737 49.4973 111.789 49.532 111.893 49.532C111.962 49.532 111.997 49.4973 111.997 49.428ZM124.581 49.168C124.581 49.064 124.546 49.012 124.477 49.012C124.373 49.012 124.321 49.064 124.321 49.168C124.321 49.2373 124.373 49.272 124.477 49.272C124.546 49.272 124.581 49.2373 124.581 49.168ZM125.413 48.856C125.413 48.7867 125.361 48.752 125.257 48.752C125.187 48.752 125.153 48.7867 125.153 48.856C125.153 48.96 125.187 49.012 125.257 49.012C125.361 49.012 125.413 48.96 125.413 48.856ZM122.709 48.18C122.917 48.18 123.021 48.0933 123.021 47.92C123.021 47.7467 122.917 47.66 122.709 47.66C122.535 47.66 122.449 47.7467 122.449 47.92C122.449 48.0933 122.535 48.18 122.709 48.18ZM124.581 45.944C124.581 45.84 124.546 45.788 124.477 45.788C124.373 45.788 124.321 45.84 124.321 45.944C124.321 46.0133 124.373 46.048 124.477 46.048C124.546 46.048 124.581 46.0133 124.581 45.944ZM121.357 46.1C121.114 45.9267 120.906 45.9267 120.733 46.1C120.559 46.2387 120.369 46.2213 120.161 46.048C120.022 45.944 119.901 45.944 119.797 46.048C119.727 46.1173 119.675 46.2213 119.641 46.36C119.606 46.4987 119.554 46.62 119.485 46.724C119.45 46.828 119.381 46.8453 119.277 46.776C119.138 46.672 118.913 46.7587 118.601 47.036C118.289 47.3133 118.115 47.452 118.081 47.452C117.734 47.4867 117.439 47.5733 117.197 47.712C116.989 47.816 116.85 47.92 116.781 48.024C116.711 48.0933 116.607 48.284 116.469 48.596C116.33 48.908 116.226 49.1333 116.157 49.272C115.914 49.688 115.793 50.2253 115.793 50.884V51.144C115.827 51.5253 115.862 51.8027 115.897 51.976C115.931 52.1147 115.983 52.2187 116.053 52.288C116.157 52.3573 116.313 52.4093 116.521 52.444H116.625C117.075 52.444 117.613 52.288 118.237 51.976C118.93 51.5947 119.363 51.456 119.537 51.56C119.71 51.664 119.797 51.6293 119.797 51.456C119.797 51.2827 120.126 51.0227 120.785 50.676L121.773 50.156L121.825 48.284V47.66C121.825 46.7933 121.669 46.2733 121.357 46.1ZM113.349 45.944C113.349 45.84 113.297 45.788 113.193 45.788C113.123 45.788 113.089 45.84 113.089 45.944C113.089 46.0133 113.123 46.048 113.193 46.048C113.297 46.048 113.349 46.0133 113.349 45.944ZM125.933 45.268C125.933 45.0947 125.794 44.9733 125.517 44.904C125.274 44.8347 125.101 44.8693 124.997 45.008C124.962 45.0773 124.945 45.164 124.945 45.268C124.945 45.6493 125.239 45.84 125.829 45.84C126.002 45.84 126.123 45.8227 126.193 45.788C126.574 45.6493 126.661 45.5627 126.453 45.528C126.106 45.4587 125.933 45.372 125.933 45.268ZM120.993 45.008C121.062 45.008 121.097 44.956 121.097 44.852C121.097 44.748 121.062 44.696 120.993 44.696C120.889 44.696 120.837 44.748 120.837 44.852C120.837 44.956 120.889 45.008 120.993 45.008ZM115.169 45.06C115.273 44.8173 115.255 44.644 115.117 44.54C115.013 44.4707 114.961 44.5053 114.961 44.644C114.961 44.7133 114.961 44.8 114.961 44.904C114.961 45.0427 114.978 45.1293 115.013 45.164C115.047 45.1987 115.099 45.164 115.169 45.06ZM126.921 44.332C126.99 44.2627 126.973 44.228 126.869 44.228C126.799 44.228 126.713 44.228 126.609 44.228L126.401 44.28C126.539 44.4533 126.713 44.4707 126.921 44.332ZM127.285 43.76C127.285 43.6907 127.233 43.656 127.129 43.656C127.059 43.656 127.025 43.6907 127.025 43.76C127.025 43.864 127.059 43.916 127.129 43.916C127.233 43.916 127.285 43.864 127.285 43.76ZM123.177 43.656C123.315 43.656 123.246 43.5173 122.969 43.24C122.899 43.1707 122.847 43.136 122.813 43.136C122.674 43.136 122.743 43.2747 123.021 43.552C123.09 43.6213 123.142 43.656 123.177 43.656ZM118.445 43.24C118.445 43.1707 118.393 43.136 118.289 43.136C118.219 43.136 118.185 43.1707 118.185 43.24C118.185 43.344 118.219 43.396 118.289 43.396C118.393 43.396 118.445 43.344 118.445 43.24ZM124.321 42.044C124.494 42.044 124.581 41.9573 124.581 41.784C124.581 41.6107 124.546 41.524 124.477 41.524C124.373 41.524 124.269 41.628 124.165 41.836C124.13 41.9747 124.182 42.044 124.321 42.044ZM126.505 41.784C126.505 41.472 126.47 41.316 126.401 41.316C126.366 41.2813 126.245 41.3853 126.037 41.628C125.829 41.8707 125.846 42.044 126.089 42.148C126.366 42.252 126.505 42.1307 126.505 41.784ZM125.049 41.524C125.187 41.524 125.118 41.368 124.841 41.056L124.737 40.952C124.563 40.952 124.615 41.108 124.893 41.42L125.049 41.524ZM121.617 41.68C121.27 41.4027 121.097 41.1253 121.097 40.848C121.097 40.5707 121.027 40.432 120.889 40.432C120.75 40.432 120.681 40.5013 120.681 40.64C120.681 40.8133 120.819 41.2293 121.097 41.888C121.305 42.408 121.513 42.564 121.721 42.356C121.963 42.1133 121.929 41.888 121.617 41.68ZM119.797 39.756C119.797 39.6867 119.745 39.652 119.641 39.652C119.571 39.652 119.537 39.6867 119.537 39.756C119.537 39.86 119.571 39.912 119.641 39.912C119.745 39.912 119.797 39.86 119.797 39.756ZM112.153 39.652C112.222 39.652 112.257 39.6 112.257 39.496C112.257 39.392 112.222 39.34 112.153 39.34C112.049 39.34 111.997 39.392 111.997 39.496C111.997 39.6 112.049 39.652 112.153 39.652ZM123.021 38.976C123.021 38.8027 123.003 38.6987 122.969 38.664C122.969 38.5947 122.934 38.5773 122.865 38.612C122.795 38.6467 122.674 38.716 122.501 38.82C122.293 38.9587 122.31 39.08 122.553 39.184C122.865 39.3227 123.021 39.2533 123.021 38.976ZM121.929 38.404C121.929 38.3347 121.877 38.3 121.773 38.3C121.703 38.3 121.669 38.3347 121.669 38.404C121.669 38.508 121.703 38.56 121.773 38.56C121.877 38.56 121.929 38.508 121.929 38.404ZM121.409 38.404C121.409 38.3347 121.357 38.3 121.253 38.3C121.149 38.3 121.097 38.3347 121.097 38.404C121.097 38.508 121.149 38.56 121.253 38.56C121.357 38.56 121.409 38.508 121.409 38.404ZM118.705 37.364C118.705 37.26 118.67 37.208 118.601 37.208C118.497 37.208 118.445 37.26 118.445 37.364C118.445 37.4333 118.497 37.468 118.601 37.468C118.67 37.468 118.705 37.4333 118.705 37.364ZM119.225 36.792C119.225 36.7227 119.19 36.688 119.121 36.688C119.017 36.688 118.965 36.7227 118.965 36.792C118.965 36.896 119.017 36.948 119.121 36.948C119.19 36.948 119.225 36.896 119.225 36.792ZM116.001 37.364C116.451 37.1213 116.382 36.9653 115.793 36.896C115.238 36.7573 114.961 36.792 114.961 37C114.961 37.1387 114.77 37.2947 114.389 37.468L113.765 37.728H114.389C114.77 37.7973 114.961 37.9013 114.961 38.04C114.961 38.2133 115.047 38.3 115.221 38.3C115.394 38.3 115.463 38.196 115.429 37.988C115.359 37.78 115.55 37.572 116.001 37.364ZM115.585 36.376C116.243 36.4453 116.573 36.376 116.573 36.168C116.573 35.96 117.006 35.856 117.873 35.856C118.358 35.856 118.791 35.908 119.173 36.012C119.45 36.0813 119.606 36.22 119.641 36.428C119.675 36.6013 119.901 36.688 120.317 36.688C120.837 36.688 121.149 36.7573 121.253 36.896C121.391 37.104 121.894 37.2947 122.761 37.468C123.731 37.676 124.442 37.9533 124.893 38.3C125.343 38.6467 125.638 38.7507 125.777 38.612C125.846 38.612 125.898 38.6813 125.933 38.82C125.933 39.028 126.071 39.236 126.349 39.444C126.591 39.6173 126.851 40.068 127.129 40.796C127.441 41.524 127.597 42.044 127.597 42.356C127.597 42.4947 127.562 42.564 127.493 42.564C127.319 42.564 127.406 42.772 127.753 43.188C128.169 43.6733 128.377 44.1067 128.377 44.488C128.585 45.736 128.689 47.8333 128.689 50.78C128.689 51.4387 128.654 51.8373 128.585 51.976C128.515 52.1147 128.411 52.8253 128.273 54.108C128.203 55.2173 128.082 55.9453 127.909 56.292C127.77 56.6387 127.493 56.864 127.077 56.968C126.487 57.1413 126.037 57.3147 125.725 57.488C125.274 57.7307 124.979 57.748 124.841 57.54C124.702 57.332 124.529 57.2627 124.321 57.332H124.061C123.679 57.332 123.298 57.2627 122.917 57.124C122.57 56.9853 122.397 56.8293 122.397 56.656C122.397 56.1013 122.154 56.084 121.669 56.604C121.322 56.9507 120.975 57.124 120.629 57.124C120.421 57.124 120.317 57.0373 120.317 56.864C120.317 56.7253 120.282 56.6213 120.213 56.552C120.143 56.4827 120.039 56.4827 119.901 56.552C119.797 56.5867 119.71 56.6733 119.641 56.812C119.537 56.9853 118.965 57.072 117.925 57.072C116.85 57.072 116.174 56.9853 115.897 56.812C115.862 56.7773 115.671 56.708 115.325 56.604C114.146 56.396 112.742 55.7893 111.113 54.784C110.558 54.4373 110.038 53.9347 109.553 53.276C109.067 52.6173 108.825 52.0973 108.825 51.716C108.825 51.612 108.842 51.5427 108.877 51.508C108.946 51.404 109.05 50.936 109.189 50.104C109.362 48.9947 110.194 47.608 111.685 45.944C113.21 44.28 114.371 43.448 115.169 43.448C115.273 43.448 115.342 43.4653 115.377 43.5C115.55 43.5693 115.654 43.5867 115.689 43.552C115.689 43.5173 115.671 43.4653 115.637 43.396C115.567 43.292 115.637 43.2227 115.845 43.188L116.157 43.136C116.503 43.2053 116.677 43.292 116.677 43.396C116.573 43.5693 116.625 43.656 116.833 43.656C117.041 43.656 117.075 43.76 116.937 43.968C116.833 44.176 116.833 44.228 116.937 44.124C117.075 43.9853 117.405 44.02 117.925 44.228C118.514 44.4013 118.93 44.4013 119.173 44.228C119.45 44.0893 119.398 44.0027 119.017 43.968C118.913 43.9333 118.739 43.916 118.497 43.916C117.734 43.916 117.353 43.8467 117.353 43.708C117.353 43.6387 117.405 43.5 117.509 43.292C117.613 43.0147 117.994 42.876 118.653 42.876C119.034 42.876 119.225 42.9627 119.225 43.136C119.225 43.3093 119.363 43.396 119.641 43.396C119.918 43.396 120.057 43.4653 120.057 43.604C120.057 43.708 120.126 43.7773 120.265 43.812C120.438 43.8467 120.611 43.8293 120.785 43.76C120.993 43.6907 121.131 43.5867 121.201 43.448C121.235 43.4133 121.253 43.344 121.253 43.24C121.253 43.0667 121.131 42.824 120.889 42.512C120.681 42.1653 120.577 41.94 120.577 41.836C120.577 41.4893 120.455 41.1253 120.213 40.744C119.97 40.3627 119.727 40.172 119.485 40.172C119.311 40.172 119.19 40.1547 119.121 40.12C119.086 40.0507 119.086 39.9813 119.121 39.912C119.19 39.8427 119.138 39.7733 118.965 39.704C118.826 39.6693 118.653 39.652 118.445 39.652C118.167 39.652 117.907 39.6 117.665 39.496C117.457 39.3573 117.301 39.288 117.197 39.288C117.093 39.288 116.867 39.3747 116.521 39.548C115.654 39.9987 114.926 40.224 114.337 40.224C113.921 40.224 113.591 40.1027 113.349 39.86C112.967 39.4787 112.673 39.392 112.465 39.6C112.222 39.8427 111.997 39.9293 111.789 39.86C111.581 39.7907 111.494 39.6173 111.529 39.34C111.598 38.9933 111.685 38.82 111.789 38.82C111.927 38.82 111.945 38.612 111.841 38.196C111.771 37.9187 111.737 37.78 111.737 37.78C111.771 37.7453 111.875 37.8493 112.049 38.092C112.222 38.3347 112.343 38.456 112.413 38.456C112.482 38.4213 112.586 38.2653 112.725 37.988C112.794 37.8147 112.863 37.6067 112.933 37.364C113.037 37.1213 113.106 36.9653 113.141 36.896C113.175 36.792 113.245 36.688 113.349 36.584C113.487 36.48 113.643 36.4107 113.817 36.376C114.025 36.3413 114.285 36.324 114.597 36.324C114.666 36.324 114.805 36.3413 115.013 36.376C115.255 36.376 115.446 36.376 115.585 36.376ZM126.037 58.112C125.967 57.7653 126.089 57.592 126.401 57.592C126.609 57.592 126.713 57.6267 126.713 57.696C126.747 57.7653 126.713 57.9387 126.609 58.216C126.539 58.3893 126.453 58.5107 126.349 58.58C126.279 58.6493 126.21 58.6493 126.141 58.58C126.071 58.476 126.037 58.32 126.037 58.112ZM137.959 65.34C137.717 65.34 137.665 65.4093 137.803 65.548C137.942 65.6867 138.063 65.6867 138.167 65.548C138.133 65.444 138.063 65.3747 137.959 65.34ZM139.311 65.236C139.311 65.132 139.277 65.08 139.207 65.08C139.103 65.08 139.051 65.132 139.051 65.236C139.051 65.3053 139.103 65.34 139.207 65.34C139.277 65.34 139.311 65.3053 139.311 65.236ZM133.487 65.288C133.626 65.4267 133.747 65.4267 133.851 65.288C133.99 65.1493 133.938 65.08 133.695 65.08C133.418 65.08 133.349 65.1493 133.487 65.288ZM130.991 64.664C130.991 64.5947 130.957 64.56 130.887 64.56C130.783 64.56 130.731 64.5947 130.731 64.664C130.731 64.768 130.783 64.82 130.887 64.82C130.957 64.82 130.991 64.768 130.991 64.664ZM142.015 64.404C142.015 64.3347 141.963 64.3 141.859 64.3C141.79 64.3 141.755 64.3347 141.755 64.404C141.755 64.508 141.79 64.56 141.859 64.56C141.963 64.56 142.015 64.508 142.015 64.404ZM129.379 61.336C129.137 61.336 129.085 61.4053 129.223 61.544C129.362 61.6827 129.483 61.6827 129.587 61.544C129.553 61.44 129.483 61.3707 129.379 61.336ZM128.339 61.18C128.339 61.1107 128.287 61.076 128.183 61.076C128.114 61.076 128.079 61.1107 128.079 61.18C128.079 61.284 128.114 61.336 128.183 61.336C128.287 61.336 128.339 61.284 128.339 61.18ZM146.747 58.216C146.817 58.0427 146.713 57.8867 146.435 57.748C146.401 57.748 146.349 57.7307 146.279 57.696C146.175 57.696 146.123 57.7827 146.123 57.956C146.123 58.372 146.245 58.58 146.487 58.58C146.557 58.58 146.643 58.4587 146.747 58.216ZM142.535 56.604C142.535 56.5347 142.449 56.5 142.275 56.5C142.102 56.5 142.015 56.604 142.015 56.812C142.015 57.0547 142.154 57.0373 142.431 56.76C142.501 56.6907 142.535 56.6387 142.535 56.604ZM144.927 51.56C144.927 51.456 144.893 51.404 144.823 51.404C144.719 51.404 144.667 51.456 144.667 51.56C144.667 51.6293 144.719 51.664 144.823 51.664C144.893 51.664 144.927 51.6293 144.927 51.56ZM140.299 48.908C140.265 48.7347 140.178 48.6307 140.039 48.596C139.935 48.5267 139.849 48.5267 139.779 48.596C139.71 48.6653 139.675 48.7867 139.675 48.96C139.745 49.376 139.901 49.4973 140.143 49.324C140.282 49.22 140.334 49.0813 140.299 48.908ZM149.347 48.492C149.451 48.492 149.503 48.44 149.503 48.336C149.503 48.232 149.451 48.18 149.347 48.18C149.278 48.18 149.243 48.232 149.243 48.336C149.243 48.44 149.278 48.492 149.347 48.492ZM144.355 48.388C144.494 48.2493 144.494 48.128 144.355 48.024C144.217 47.8853 144.147 47.9373 144.147 48.18C144.147 48.284 144.165 48.3533 144.199 48.388C144.269 48.4227 144.321 48.4227 144.355 48.388ZM144.927 46.984C144.927 46.9147 144.893 46.88 144.823 46.88C144.719 46.88 144.667 46.9147 144.667 46.984C144.667 47.088 144.719 47.14 144.823 47.14C144.893 47.14 144.927 47.088 144.927 46.984ZM149.919 46.62C149.989 46.62 150.023 46.568 150.023 46.464C150.023 46.36 149.989 46.308 149.919 46.308C149.815 46.308 149.763 46.36 149.763 46.464C149.763 46.568 149.815 46.62 149.919 46.62ZM138.635 46.62C138.739 46.62 138.791 46.568 138.791 46.464C138.791 46.36 138.739 46.308 138.635 46.308C138.566 46.308 138.531 46.36 138.531 46.464C138.531 46.568 138.566 46.62 138.635 46.62ZM140.403 45.112C140.403 45.0427 140.351 45.008 140.247 45.008C140.178 45.008 140.143 45.0427 140.143 45.112C140.143 45.216 140.178 45.268 140.247 45.268C140.351 45.268 140.403 45.216 140.403 45.112ZM149.763 44.072C149.763 43.968 149.729 43.916 149.659 43.916C149.555 43.916 149.503 43.968 149.503 44.072C149.503 44.1413 149.555 44.176 149.659 44.176C149.729 44.176 149.763 44.1413 149.763 44.072ZM145.759 44.332C145.759 44.0547 145.673 43.916 145.499 43.916C145.326 43.916 145.239 44.0027 145.239 44.176C145.239 44.4187 145.343 44.5573 145.551 44.592C145.655 44.5573 145.725 44.4707 145.759 44.332ZM150.595 43.916C150.769 43.916 150.855 43.8293 150.855 43.656C150.855 43.4827 150.769 43.396 150.595 43.396C150.387 43.396 150.283 43.4827 150.283 43.656C150.283 43.8293 150.387 43.916 150.595 43.916ZM136.347 43.5C136.347 43.4307 136.313 43.396 136.243 43.396C136.139 43.396 136.087 43.4307 136.087 43.5C136.087 43.604 136.139 43.656 136.243 43.656C136.313 43.656 136.347 43.604 136.347 43.5ZM147.371 43.24C147.371 43.1707 147.319 43.136 147.215 43.136C147.146 43.136 147.111 43.1707 147.111 43.24C147.111 43.344 147.146 43.396 147.215 43.396C147.319 43.396 147.371 43.344 147.371 43.24ZM150.439 43.136C150.543 43.136 150.595 43.084 150.595 42.98C150.595 42.876 150.543 42.824 150.439 42.824C150.335 42.824 150.283 42.876 150.283 42.98C150.283 43.084 150.335 43.136 150.439 43.136ZM149.087 43.136C149.191 43.136 149.243 43.084 149.243 42.98C149.243 42.876 149.191 42.824 149.087 42.824C149.018 42.824 148.983 42.876 148.983 42.98C148.983 43.084 149.018 43.136 149.087 43.136ZM138.531 42.72C138.531 42.616 138.479 42.564 138.375 42.564C138.306 42.564 138.271 42.616 138.271 42.72C138.271 42.7893 138.306 42.824 138.375 42.824C138.479 42.824 138.531 42.7893 138.531 42.72ZM150.855 41.628C150.855 41.5587 150.803 41.524 150.699 41.524C150.63 41.524 150.595 41.5587 150.595 41.628C150.595 41.732 150.63 41.784 150.699 41.784C150.803 41.784 150.855 41.732 150.855 41.628ZM150.023 41.368C150.023 41.264 149.937 41.212 149.763 41.212C149.59 41.212 149.503 41.316 149.503 41.524C149.503 41.7667 149.642 41.7667 149.919 41.524L150.023 41.368ZM138.791 41.108C138.791 41.004 138.739 40.952 138.635 40.952C138.566 40.952 138.531 41.004 138.531 41.108C138.531 41.1773 138.566 41.212 138.635 41.212C138.739 41.212 138.791 41.1773 138.791 41.108ZM148.411 41.524C148.619 41.524 148.723 41.3853 148.723 41.108C148.723 40.8307 148.671 40.692 148.567 40.692L148.255 41.264C148.221 41.4373 148.273 41.524 148.411 41.524ZM147.163 41.316C146.886 41.212 146.643 41.0213 146.435 40.744C146.262 40.5013 146.141 40.6053 146.071 41.056C146.071 41.1253 146.071 41.1947 146.071 41.264V41.576C146.071 41.8187 146.106 41.94 146.175 41.94C146.21 41.94 146.297 41.888 146.435 41.784C146.574 41.68 146.678 41.628 146.747 41.628C146.851 41.628 146.938 41.7147 147.007 41.888C147.077 42.0613 147.163 42.1827 147.267 42.252C147.371 42.3213 147.458 42.3213 147.527 42.252C147.597 42.1827 147.631 42.0613 147.631 41.888C147.631 41.6453 147.475 41.4547 147.163 41.316ZM134.631 39.652C134.701 39.652 134.735 39.6 134.735 39.496C134.735 39.392 134.701 39.34 134.631 39.34C134.527 39.34 134.475 39.392 134.475 39.496C134.475 39.6 134.527 39.652 134.631 39.652ZM138.531 39.34C138.531 39.1667 138.445 39.08 138.271 39.08C138.063 39.08 137.959 39.1667 137.959 39.34C137.959 39.548 138.063 39.652 138.271 39.652C138.445 39.652 138.531 39.548 138.531 39.34ZM134.163 37.936C134.302 37.7973 134.302 37.676 134.163 37.572C134.025 37.4333 133.955 37.4853 133.955 37.728C133.955 37.832 133.973 37.9187 134.007 37.988C134.077 38.0227 134.129 38.0053 134.163 37.936ZM135.047 36.532C135.047 36.4627 134.995 36.428 134.891 36.428C134.787 36.428 134.735 36.4627 134.735 36.532C134.735 36.636 134.787 36.688 134.891 36.688C134.995 36.688 135.047 36.636 135.047 36.532ZM146.799 38.3C146.799 38.092 146.938 37.8147 147.215 37.468C147.493 37.1213 147.631 36.8093 147.631 36.532C147.631 36.012 147.718 35.752 147.891 35.752C147.995 35.752 148.065 35.8733 148.099 36.116C148.169 36.4627 148.307 36.6533 148.515 36.688C148.619 36.6533 148.689 36.5667 148.723 36.428C148.723 36.0813 148.897 36.012 149.243 36.22C149.417 36.3587 149.555 36.532 149.659 36.74C149.833 37.156 150.093 37.364 150.439 37.364C150.474 37.364 150.543 37.3813 150.647 37.416C151.341 37.52 151.722 37.6933 151.791 37.936L151.843 38.352C151.843 38.5947 151.791 38.976 151.687 39.496C151.479 40.6053 151.375 41.42 151.375 41.94C151.375 42.5293 151.306 42.824 151.167 42.824C151.098 42.824 151.063 42.9627 151.063 43.24C151.063 43.344 151.063 43.5173 151.063 43.76C151.098 44.0027 151.115 44.176 151.115 44.28C151.115 44.5573 151.063 44.696 150.959 44.696C150.959 44.6613 150.942 44.644 150.907 44.644C150.838 44.6093 150.786 44.6267 150.751 44.696C150.751 44.7307 150.751 44.852 150.751 45.06C150.786 45.2333 150.803 45.3547 150.803 45.424C150.803 45.944 150.665 46.8107 150.387 48.024C150.145 49.2373 149.937 49.9653 149.763 50.208C149.625 50.3467 149.486 50.7973 149.347 51.56C149.105 53.0853 148.602 54.9573 147.839 57.176C147.077 59.3947 146.418 60.9547 145.863 61.856C145.586 62.3413 145.101 62.8267 144.407 63.312C143.714 63.7973 143.177 64.04 142.795 64.04C142.622 64.04 142.362 64.2133 142.015 64.56C141.461 65.1147 141.131 65.2533 141.027 64.976C141.027 64.9067 141.045 64.8027 141.079 64.664C141.183 64.3867 141.166 64.2653 141.027 64.3C140.854 64.3347 140.663 64.56 140.455 64.976C140.282 65.392 139.935 65.6173 139.415 65.652C139.173 65.652 138.843 65.704 138.427 65.808C138.046 65.912 137.769 65.964 137.595 65.964C137.387 65.964 137.179 65.912 136.971 65.808C136.521 65.6 136.139 65.6173 135.827 65.86C135.515 66.068 135.151 66.172 134.735 66.172C134.458 66.172 134.319 66.12 134.319 66.016C134.319 65.9813 134.337 65.9467 134.371 65.912C134.475 65.7387 134.441 65.652 134.267 65.652C134.163 65.652 134.025 65.756 133.851 65.964C133.713 66.2067 133.539 66.2067 133.331 65.964C133.019 65.7213 132.933 65.4613 133.071 65.184C133.21 64.9413 133.158 64.82 132.915 64.82C132.742 64.82 132.673 64.8893 132.707 65.028C132.742 65.132 132.69 65.2013 132.551 65.236C132.447 65.3053 132.274 65.34 132.031 65.34C131.893 65.34 131.858 65.2533 131.927 65.08C131.962 64.9413 131.927 64.872 131.823 64.872C131.754 64.872 131.633 64.9067 131.459 64.976H131.251C130.87 64.976 130.419 64.8547 129.899 64.612C129.379 64.404 129.119 64.196 129.119 63.988C129.119 63.8147 128.998 63.728 128.755 63.728C128.478 63.728 128.201 63.5027 127.923 63.052C127.646 62.7053 127.247 62.2547 126.727 61.7L126.103 61.076H126.935C127.455 61.0413 127.698 60.9547 127.663 60.816V60.764C127.629 60.7293 127.611 60.6947 127.611 60.66C127.611 60.4867 127.75 60.3307 128.027 60.192C128.339 60.0187 128.634 59.932 128.911 59.932C129.085 59.932 129.206 59.9493 129.275 59.984C129.691 60.1573 129.951 60.192 130.055 60.088C130.159 59.984 130.211 60.0013 130.211 60.14C130.211 60.2093 130.471 60.244 130.991 60.244C131.962 60.244 133.349 60.1573 135.151 59.984C136.989 59.776 138.098 59.6027 138.479 59.464C139.069 59.2213 139.623 58.5453 140.143 57.436C140.802 56.1533 141.131 55.1827 141.131 54.524C141.131 53.9347 140.906 53.3627 140.455 52.808C139.311 51.3173 138.306 49.7053 137.439 47.972C136.781 46.516 136.451 45.6667 136.451 45.424C136.451 45.008 136.33 44.696 136.087 44.488C135.775 44.2453 135.585 43.864 135.515 43.344C135.446 42.928 135.359 42.668 135.255 42.564C135.117 42.4253 134.891 41.9053 134.579 41.004C134.302 40.068 134.163 39.444 134.163 39.132C134.163 39.0973 134.163 39.0627 134.163 39.028C134.198 38.924 134.198 38.872 134.163 38.872C134.163 38.8373 134.111 38.8547 134.007 38.924C133.834 38.7853 133.73 38.5947 133.695 38.352C133.695 37.7973 133.557 37.468 133.279 37.364C133.002 37.2253 132.863 37.0693 132.863 36.896C132.863 36.6533 132.933 36.6013 133.071 36.74C133.21 36.8787 133.557 36.7573 134.111 36.376L134.995 35.856L135.515 36.376C135.897 36.7573 136.087 37.0173 136.087 37.156C136.087 37.2253 136.417 37.416 137.075 37.728C137.769 38.04 138.115 38.2133 138.115 38.248C138.115 38.456 138.219 38.664 138.427 38.872C138.635 39.1147 138.809 39.444 138.947 39.86C139.086 40.276 139.277 40.6573 139.519 41.004C139.97 41.732 140.213 42.2693 140.247 42.616C140.282 42.7547 140.317 42.9107 140.351 43.084C140.386 43.2573 140.403 43.3613 140.403 43.396C140.438 43.5 140.438 43.604 140.403 43.708C140.403 43.8467 140.473 43.916 140.611 43.916C140.785 43.916 140.871 44.02 140.871 44.228C140.871 44.2627 140.958 44.5573 141.131 45.112C141.339 45.6667 141.599 46.308 141.911 47.036C142.258 47.7293 142.57 48.2147 142.847 48.492C143.055 48.6653 143.194 48.7347 143.263 48.7C143.333 48.6653 143.471 48.4227 143.679 47.972C143.714 47.9027 143.87 47.4693 144.147 46.672C144.425 45.84 144.702 45.06 144.979 44.332C145.291 43.604 145.517 43.24 145.655 43.24C145.829 43.24 145.915 43.136 145.915 42.928C145.915 42.6853 145.846 42.564 145.707 42.564C145.569 42.564 145.499 42.3907 145.499 42.044C145.499 41.6973 145.586 41.2813 145.759 40.796C145.933 40.276 146.089 40.016 146.227 40.016H146.279C146.349 40.0853 146.522 39.9987 146.799 39.756C146.938 39.5827 146.99 39.4787 146.955 39.444C146.921 39.3747 146.782 39.34 146.539 39.34C146.262 39.34 146.106 39.2707 146.071 39.132C146.037 38.9587 146.141 38.8373 146.383 38.768C146.453 38.768 146.505 38.768 146.539 38.768C146.609 38.8027 146.661 38.7853 146.695 38.716C146.765 38.612 146.799 38.4733 146.799 38.3Z" fill="white"/>
</svg>
