<svg width="229" height="83" viewBox="0 0 229 83" fill="none" xmlns="http://www.w3.org/2000/svg">
<rect width="229" height="83" rx="14" fill="#AA5757"/>
<path d="M95.392 58.18C95.392 58.1107 95.34 58.076 95.236 58.076C95.1667 58.076 95.132 58.1107 95.132 58.18C95.132 58.284 95.1667 58.336 95.236 58.336C95.34 58.336 95.392 58.284 95.392 58.18ZM86.292 53.136C86.292 53.032 86.24 52.98 86.136 52.98C86.032 52.98 85.98 53.032 85.98 53.136C85.98 53.2053 86.032 53.24 86.136 53.24C86.24 53.24 86.292 53.2053 86.292 53.136ZM83.068 52.564C83.068 52.4947 83.016 52.46 82.912 52.46C82.8427 52.46 82.808 52.4947 82.808 52.564C82.808 52.668 82.8427 52.72 82.912 52.72C83.016 52.72 83.068 52.668 83.068 52.564ZM81.716 51.212C81.716 51.1427 81.664 51.108 81.56 51.108C81.4907 51.108 81.456 51.1427 81.456 51.212C81.456 51.316 81.4907 51.368 81.56 51.368C81.664 51.368 81.716 51.316 81.716 51.212ZM80.936 50.952C80.936 50.8827 80.884 50.848 80.78 50.848C80.676 50.848 80.624 50.8827 80.624 50.952C80.624 51.056 80.676 51.108 80.78 51.108C80.884 51.108 80.936 51.056 80.936 50.952ZM87.592 46.168C87.592 46.064 87.5573 46.012 87.488 46.012C87.384 46.012 87.332 46.064 87.332 46.168C87.332 46.2373 87.384 46.272 87.488 46.272C87.5573 46.272 87.592 46.2373 87.592 46.168ZM95.756 45.648C95.8253 45.7173 95.912 45.7347 96.016 45.7C96.224 45.6307 96.2587 45.5787 96.12 45.544C96.0507 45.5093 95.9813 45.492 95.912 45.492C95.704 45.492 95.652 45.544 95.756 45.648ZM70.64 40.656C70.7093 40.656 70.744 40.5693 70.744 40.396C70.744 40.2227 70.64 40.136 70.432 40.136C70.1893 40.136 70.2067 40.2747 70.484 40.552C70.5533 40.6213 70.6053 40.656 70.64 40.656ZM93.624 40.136C93.728 40.136 93.78 40.084 93.78 39.98C93.78 39.876 93.728 39.824 93.624 39.824C93.5547 39.824 93.52 39.876 93.52 39.98C93.52 40.084 93.5547 40.136 93.624 40.136ZM72.876 39.148C72.876 39.0787 72.824 39.044 72.72 39.044C72.6507 39.044 72.616 39.0787 72.616 39.148C72.616 39.252 72.6507 39.304 72.72 39.304C72.824 39.304 72.876 39.252 72.876 39.148ZM71.524 37.276C71.524 37.2067 71.4893 37.172 71.42 37.172C71.316 37.172 71.264 37.2067 71.264 37.276C71.264 37.38 71.316 37.432 71.42 37.432C71.4893 37.432 71.524 37.38 71.524 37.276ZM71.004 37.276C71.004 37.2067 70.952 37.172 70.848 37.172C70.7787 37.172 70.744 37.2067 70.744 37.276C70.744 37.38 70.7787 37.432 70.848 37.432C70.952 37.432 71.004 37.38 71.004 37.276ZM95.912 35.56C95.6693 35.56 95.6173 35.6293 95.756 35.768C95.8947 35.9067 96.016 35.9067 96.12 35.768C96.0853 35.664 96.016 35.5947 95.912 35.56ZM77.66 35.56C77.868 35.56 78.0067 35.456 78.076 35.248C78.0413 35.144 77.972 35.0747 77.868 35.04C77.556 35.04 77.4 35.1267 77.4 35.3C77.4 35.4733 77.4867 35.56 77.66 35.56ZM75.268 34.728C75.4413 34.728 75.528 34.6413 75.528 34.468C75.528 34.2947 75.4413 34.208 75.268 34.208C75.0947 34.208 75.008 34.2947 75.008 34.468C75.008 34.6413 75.0947 34.728 75.268 34.728ZM77.4 33.792C77.4 33.7227 77.3653 33.688 77.296 33.688C77.192 33.688 77.14 33.7227 77.14 33.792C77.14 33.896 77.192 33.948 77.296 33.948C77.3653 33.948 77.4 33.896 77.4 33.792ZM73.136 33.948C73.3093 33.948 73.396 33.8613 73.396 33.688C73.396 33.5147 73.3613 33.428 73.292 33.428C73.1533 33.428 73.0493 33.532 72.98 33.74C72.9453 33.8787 72.9973 33.948 73.136 33.948ZM73.916 32.18C73.916 32.1107 73.8813 32.076 73.812 32.076C73.708 32.076 73.656 32.1107 73.656 32.18C73.656 32.284 73.708 32.336 73.812 32.336C73.8813 32.336 73.916 32.284 73.916 32.18ZM75.944 31.556C76.048 31.556 76.1 31.504 76.1 31.4C76.1 31.296 76.048 31.244 75.944 31.244C75.8747 31.244 75.84 31.296 75.84 31.4C75.84 31.504 75.8747 31.556 75.944 31.556ZM79.792 30.776C79.792 30.88 79.5667 31.1227 79.116 31.504C78.7 31.8507 78.492 32.1107 78.492 32.284C78.492 32.596 78.6827 32.5093 79.064 32.024C79.2373 31.816 79.324 31.764 79.324 31.868C79.324 31.972 79.4627 31.92 79.74 31.712C80.2253 31.296 80.52 31.2093 80.624 31.452C80.624 31.5213 80.468 31.712 80.156 32.024C79.8787 32.3013 79.4453 33.0293 78.856 34.208C78.3013 35.3867 77.92 36.3747 77.712 37.172C77.504 37.9 77.4 38.94 77.4 40.292C77.4 41.644 77.504 42.632 77.712 43.256C77.92 43.9147 78.336 44.6253 78.96 45.388C79.584 46.1507 79.8267 46.532 79.688 46.532H79.636C79.636 46.636 80 46.948 80.728 47.468C81.4907 47.988 81.976 48.2653 82.184 48.3C82.4613 48.3693 82.8253 48.3173 83.276 48.144C83.5533 48.04 83.692 47.9707 83.692 47.936C83.692 47.936 83.6573 47.9187 83.588 47.884C83.38 47.8493 82.964 47.4507 82.34 46.688C81.7507 45.9253 81.456 45.4227 81.456 45.18C81.456 45.076 81.5253 45.024 81.664 45.024C81.768 45.024 81.9413 45.0587 82.184 45.128C82.4613 45.1973 82.6347 45.232 82.704 45.232C82.7387 45.232 82.756 45.2147 82.756 45.18C82.756 45.076 82.6867 44.9547 82.548 44.816C82.4093 44.6427 82.34 44.4867 82.34 44.348C82.34 44.1053 82.548 43.984 82.964 43.984C83.068 43.984 83.328 44.0187 83.744 44.088C84.056 44.1573 84.2987 44.244 84.472 44.348C84.68 44.452 84.7667 44.5387 84.732 44.608C84.732 44.6427 84.7493 44.6773 84.784 44.712C84.8533 44.7467 84.94 44.7813 85.044 44.816C85.148 44.8507 85.2693 44.8853 85.408 44.92C85.5467 44.9547 85.7027 44.9893 85.876 45.024C86.6387 45.128 87.0893 45.284 87.228 45.492C87.4013 45.7347 87.6093 45.804 87.852 45.7C88.0947 45.596 88.2853 45.3707 88.424 45.024C88.632 44.5733 88.788 44.0533 88.892 43.464C88.996 42.8747 89.0653 42.424 89.1 42.112C89.1347 41.7653 89.1693 41.592 89.204 41.592L89.256 41.332C89.256 41.1587 89.256 40.8813 89.256 40.5C89.2907 40.1187 89.3253 39.772 89.36 39.46V38.784C89.36 36.3227 88.9613 34.5373 88.164 33.428C87.7827 32.908 87.592 32.596 87.592 32.492C87.592 32.284 87.3147 31.9893 86.76 31.608C86.24 31.192 85.8413 30.984 85.564 30.984C85.148 30.984 84.94 30.8973 84.94 30.724C84.94 30.5507 85.044 30.516 85.252 30.62C85.356 30.6547 85.408 30.672 85.408 30.672C85.408 30.672 85.3907 30.62 85.356 30.516C85.1133 30.204 84.8533 30.1173 84.576 30.256C84.472 30.2907 84.42 30.36 84.42 30.464C84.42 30.6373 84.1773 30.6373 83.692 30.464C83.3453 30.3253 83.0853 30.256 82.912 30.256C82.7733 30.2213 82.6867 30.2213 82.652 30.256C82.6173 30.2907 82.6 30.3947 82.6 30.568C82.6 30.776 82.2707 30.88 81.612 30.88C81.1613 30.88 80.936 30.776 80.936 30.568C80.936 30.3253 80.7453 30.204 80.364 30.204C80.0867 30.204 79.9133 30.2387 79.844 30.308C79.7747 30.3773 79.7573 30.5333 79.792 30.776ZM91.388 30.048C91.388 29.9787 91.336 29.944 91.232 29.944C91.128 29.944 91.076 29.9787 91.076 30.048C91.076 30.152 91.128 30.204 91.232 30.204C91.336 30.204 91.388 30.152 91.388 30.048ZM80.936 29.372C80.936 29.5453 80.9707 29.632 81.04 29.632C81.144 29.632 81.1787 29.528 81.144 29.32L81.092 29.216C80.988 29.112 80.936 29.164 80.936 29.372ZM77.972 29.268C77.972 29.164 77.92 29.112 77.816 29.112C77.7467 29.112 77.712 29.164 77.712 29.268C77.712 29.3373 77.7467 29.372 77.816 29.372C77.92 29.372 77.972 29.3373 77.972 29.268ZM79.324 28.176C79.324 28.1067 79.272 28.072 79.168 28.072C79.064 28.072 79.012 28.1067 79.012 28.176C79.012 28.28 79.064 28.332 79.168 28.332C79.272 28.332 79.324 28.28 79.324 28.176ZM83.068 27.656C83.068 27.552 83.016 27.5 82.912 27.5C82.8427 27.5 82.808 27.552 82.808 27.656C82.808 27.7253 82.8427 27.76 82.912 27.76C83.016 27.76 83.068 27.7253 83.068 27.656ZM81.976 28.072C82.1493 28.072 82.288 27.9333 82.392 27.656C82.3573 27.5867 82.3227 27.5347 82.288 27.5C82.1147 27.5 81.976 27.5867 81.872 27.76C81.7333 27.968 81.768 28.072 81.976 28.072ZM75.788 28.592C76.0653 28.592 76.2907 28.5053 76.464 28.332C76.6373 28.124 76.8453 28.0027 77.088 27.968C77.504 27.968 77.712 27.8813 77.712 27.708C77.712 27.604 78.0413 27.5 78.7 27.396C79.3587 27.2573 79.688 27.1013 79.688 26.928C79.688 26.616 79.844 26.356 80.156 26.148C80.468 25.9053 80.9013 25.784 81.456 25.784C81.6987 25.784 81.872 25.8013 81.976 25.836C82.0453 25.836 82.1493 25.8533 82.288 25.888C82.4613 25.9227 82.6693 25.9573 82.912 25.992C83.1893 25.992 83.4147 26.0093 83.588 26.044C84.316 26.148 84.8187 26.304 85.096 26.512C85.3387 26.6853 85.46 26.72 85.46 26.616C85.46 26.5813 85.4947 26.564 85.564 26.564C85.668 26.564 85.9107 26.668 86.292 26.876C86.6733 27.0493 86.916 27.136 87.02 27.136C87.0547 27.136 87.072 27.1187 87.072 27.084C87.072 26.9107 87.2453 26.9973 87.592 27.344C87.9733 27.6907 88.3027 27.8293 88.58 27.76C88.6493 27.76 88.7187 27.76 88.788 27.76C88.892 27.7253 88.9613 27.708 88.996 27.708C89.4467 27.708 89.8627 27.8987 90.244 28.28C90.452 28.488 90.7467 28.5573 91.128 28.488C91.4053 28.384 91.6827 28.5053 91.96 28.852C92.1333 29.1293 92.428 29.3373 92.844 29.476C93.1907 29.6147 93.2253 29.7707 92.948 29.944C92.7747 30.048 92.7053 30.1173 92.74 30.152C92.7747 30.152 92.9133 30.1173 93.156 30.048C93.2253 30.0133 93.2947 29.996 93.364 29.996C93.6413 29.996 94.1613 30.4467 94.924 31.348C95.964 32.6307 96.6227 33.6707 96.9 34.468C97.1773 35.2653 97.316 36.5307 97.316 38.264V39.2C97.2813 41.8347 97.056 43.776 96.64 45.024C95.808 47.4507 94.924 48.976 93.988 49.6C93.6413 49.8773 93.52 50.016 93.624 50.016C93.7627 50.016 93.676 50.2067 93.364 50.588C93.156 50.8307 93.052 51.0213 93.052 51.16C93.052 51.2293 93.208 51.5067 93.52 51.992C94.0747 52.6853 94.4907 53.136 94.768 53.344C95.184 53.656 95.392 53.9507 95.392 54.228C95.392 54.4707 95.5653 54.592 95.912 54.592C96.224 54.592 96.5707 54.8347 96.952 55.32C97.3333 55.8053 97.524 56.2387 97.524 56.62C97.524 57.036 97.1947 57.5387 96.536 58.128L95.496 59.064L94.82 58.544C94.508 58.2667 94.144 58.076 93.728 57.972C92.2373 57.7293 90.4693 56.4813 88.424 54.228C88.1813 53.916 87.8867 53.76 87.54 53.76C87.2627 53.76 87.1413 53.6387 87.176 53.396C87.2107 53.1187 87.124 52.98 86.916 52.98C86.6387 52.98 86.552 53.1187 86.656 53.396C86.6907 53.5347 86.6733 53.6387 86.604 53.708C86.5347 53.7427 86.3787 53.76 86.136 53.76C85.8933 53.76 85.72 53.7427 85.616 53.708C85.5467 53.6733 85.5293 53.5867 85.564 53.448C85.5987 53.3093 85.564 53.2227 85.46 53.188C85.356 53.1187 85.148 53.0667 84.836 53.032C84.5587 53.032 84.4027 53.0493 84.368 53.084C84.3333 53.1187 84.42 53.1533 84.628 53.188C85.0093 53.2573 85.2 53.3787 85.2 53.552C85.2 53.6907 85.044 53.76 84.732 53.76C84.212 53.76 83.3627 53.552 82.184 53.136C81.248 52.7893 80.6413 52.616 80.364 52.616L80.26 52.668C80.1907 52.6333 80.1387 52.5813 80.104 52.512C80.104 52.2693 79.9653 52.148 79.688 52.148C79.48 52.148 79.0813 51.992 78.492 51.68C77.9373 51.368 77.608 51.1947 77.504 51.16C76.6373 51.0213 75.4413 50.328 73.916 49.08C72.3907 47.7973 71.2813 46.5493 70.588 45.336C70.068 44.4347 69.808 43.4293 69.808 42.32V41.436C69.808 38.8707 69.9293 37.588 70.172 37.588C70.2067 37.588 70.2587 37.3107 70.328 36.756C70.3973 36.3747 70.5187 36.028 70.692 35.716C70.8653 35.3693 71.0733 35.0053 71.316 34.624C71.5587 34.2427 71.7493 33.9307 71.888 33.688C72.3387 32.9253 72.668 32.4227 72.876 32.18C73.2227 31.764 73.396 31.4867 73.396 31.348C73.396 31.244 73.708 30.828 74.332 30.1C74.956 29.372 75.268 28.956 75.268 28.852C75.268 28.6787 75.4413 28.592 75.788 28.592ZM117.267 55.268C117.267 55.164 117.232 55.112 117.163 55.112C117.059 55.112 117.007 55.164 117.007 55.268C117.007 55.3373 117.059 55.372 117.163 55.372C117.232 55.372 117.267 55.3373 117.267 55.268ZM114.043 51.524C114.043 51.42 114.008 51.368 113.939 51.368C113.835 51.368 113.783 51.42 113.783 51.524C113.783 51.5933 113.835 51.628 113.939 51.628C114.008 51.628 114.043 51.5933 114.043 51.524ZM113.523 51.212C113.523 51.1427 113.471 51.108 113.367 51.108C113.298 51.108 113.263 51.1427 113.263 51.212C113.263 51.316 113.298 51.368 113.367 51.368C113.471 51.368 113.523 51.316 113.523 51.212ZM112.431 51.212C112.431 50.9693 112.344 50.848 112.171 50.848C111.928 50.9173 111.98 51.1773 112.327 51.628C112.396 51.628 112.431 51.4893 112.431 51.212ZM118.619 50.38C118.619 50.5533 118.74 50.5013 118.983 50.224C119.122 50.0853 119.174 49.9813 119.139 49.912C119.035 49.808 118.914 49.8253 118.775 49.964C118.671 50.068 118.619 50.2067 118.619 50.38ZM110.299 49.34C110.299 49.2707 110.264 49.236 110.195 49.236C110.091 49.236 110.039 49.2707 110.039 49.34C110.039 49.444 110.091 49.496 110.195 49.496C110.264 49.496 110.299 49.444 110.299 49.34ZM107.647 49.08C107.647 49.0107 107.595 48.976 107.491 48.976C107.387 48.976 107.335 49.0107 107.335 49.08C107.335 49.184 107.387 49.236 107.491 49.236C107.595 49.236 107.647 49.184 107.647 49.08ZM105.931 48.872C106.07 48.7333 106.07 48.612 105.931 48.508C105.792 48.3693 105.723 48.4213 105.723 48.664C105.723 48.768 105.74 48.8547 105.775 48.924C105.81 48.9587 105.862 48.9413 105.931 48.872ZM103.331 47.468C103.331 47.3987 103.296 47.364 103.227 47.364C103.123 47.364 103.071 47.3987 103.071 47.468C103.071 47.572 103.123 47.624 103.227 47.624C103.296 47.624 103.331 47.572 103.331 47.468ZM113.523 47.208C113.523 47.1387 113.471 47.104 113.367 47.104C113.298 47.104 113.263 47.1387 113.263 47.208C113.263 47.312 113.298 47.364 113.367 47.364C113.471 47.364 113.523 47.312 113.523 47.208ZM105.515 47.624C105.758 47.624 105.74 47.4853 105.463 47.208L105.307 47.104C105.238 47.104 105.203 47.1907 105.203 47.364C105.203 47.5373 105.307 47.624 105.515 47.624ZM104.943 46.428C104.943 46.324 104.891 46.272 104.787 46.272C104.718 46.272 104.683 46.324 104.683 46.428C104.683 46.4973 104.718 46.532 104.787 46.532C104.891 46.532 104.943 46.4973 104.943 46.428ZM113.783 45.856C113.783 45.7867 113.696 45.752 113.523 45.752C113.35 45.752 113.263 45.8387 113.263 46.012C113.263 46.2893 113.402 46.2893 113.679 46.012L113.783 45.856ZM104.943 46.012C105.116 46.012 105.203 45.9253 105.203 45.752C105.203 45.5787 105.116 45.492 104.943 45.492C104.77 45.492 104.683 45.5787 104.683 45.752C104.683 45.9253 104.77 46.012 104.943 46.012ZM103.955 45.388C104.094 45.5267 104.215 45.5267 104.319 45.388C104.458 45.2493 104.406 45.18 104.163 45.18C103.886 45.18 103.816 45.2493 103.955 45.388ZM104.943 44.504C104.943 44.296 104.822 44.3307 104.579 44.608C104.579 44.6427 104.562 44.6773 104.527 44.712C104.492 44.816 104.475 44.8853 104.475 44.92C104.475 44.92 104.527 44.8853 104.631 44.816C104.839 44.712 104.943 44.608 104.943 44.504ZM113.783 44.14C113.783 44.3827 113.852 44.452 113.991 44.348C114.13 44.2093 114.13 44.0707 113.991 43.932C113.887 43.932 113.818 44.0013 113.783 44.14ZM101.719 43.88C101.719 44.1227 101.788 44.192 101.927 44.088C102.066 43.9493 102.066 43.8107 101.927 43.672C101.892 43.6027 101.84 43.6027 101.771 43.672C101.736 43.7067 101.719 43.776 101.719 43.88ZM103.227 42.788C103.296 42.788 103.331 42.7013 103.331 42.528C103.331 42.3547 103.227 42.268 103.019 42.268C102.776 42.268 102.794 42.4067 103.071 42.684C103.14 42.7533 103.192 42.788 103.227 42.788ZM103.279 41.384C103.418 41.2453 103.418 41.124 103.279 41.02C103.14 40.8813 103.071 40.9333 103.071 41.176C103.071 41.28 103.088 41.3667 103.123 41.436C103.192 41.4707 103.244 41.4533 103.279 41.384ZM104.995 40.448C104.787 40.0667 104.406 39.876 103.851 39.876C103.366 39.9107 103.106 40.032 103.071 40.24C103.036 40.344 103.158 40.396 103.435 40.396C103.608 40.396 103.782 40.5693 103.955 40.916C104.163 41.2627 104.267 41.592 104.267 41.904C104.267 42.0427 104.25 42.1467 104.215 42.216L104.163 42.268L104.111 42.528C104.146 42.528 104.215 42.476 104.319 42.372C104.388 42.3373 104.44 42.3027 104.475 42.268C104.787 42.0253 104.891 41.8173 104.787 41.644C104.648 41.436 104.7 41.28 104.943 41.176C105.151 41.0373 105.168 40.7947 104.995 40.448ZM105.723 39.044C105.931 39.044 106.035 38.9573 106.035 38.784C106.035 38.6107 106 38.524 105.931 38.524C105.827 38.524 105.723 38.628 105.619 38.836C105.55 38.9747 105.584 39.044 105.723 39.044ZM104.943 38.628C104.943 38.5587 104.856 38.524 104.683 38.524C104.51 38.524 104.423 38.6107 104.423 38.784C104.423 39.0267 104.562 39.0267 104.839 38.784C104.908 38.7147 104.943 38.6627 104.943 38.628ZM114.615 38.524C114.892 38.524 114.875 38.368 114.563 38.056L114.407 37.952C114.338 37.952 114.303 38.0387 114.303 38.212C114.303 38.42 114.407 38.524 114.615 38.524ZM105.723 37.172C105.723 37.4147 105.792 37.484 105.931 37.38C106.07 37.2413 106.07 37.1027 105.931 36.964C105.827 36.964 105.758 37.0333 105.723 37.172ZM105.203 37.172C105.203 37.4147 105.272 37.484 105.411 37.38C105.55 37.2413 105.55 37.1027 105.411 36.964C105.307 36.964 105.238 37.0333 105.203 37.172ZM115.655 35.144C115.655 35.0747 115.62 35.04 115.551 35.04C115.447 35.04 115.395 35.0747 115.395 35.144C115.395 35.248 115.447 35.3 115.551 35.3C115.62 35.3 115.655 35.248 115.655 35.144ZM119.971 55.424C119.936 55.4933 119.694 55.6147 119.243 55.788C118.827 55.9613 118.619 56.1 118.619 56.204C118.619 56.516 118.376 56.568 117.891 56.36C117.718 56.2907 117.562 56.1867 117.423 56.048C117.25 55.9093 117.146 55.84 117.111 55.84C117.111 55.8053 117.076 55.8053 117.007 55.84C117.007 55.9093 116.903 55.8053 116.695 55.528C116.556 55.3893 116.487 55.4067 116.487 55.58C116.487 55.788 116.158 55.7013 115.499 55.32C114.84 54.9387 114.563 54.5573 114.667 54.176C114.771 53.8293 114.65 53.5347 114.303 53.292C114.095 53.1533 113.974 52.9453 113.939 52.668C113.939 52.3907 113.766 52.2 113.419 52.096C112.934 51.9573 112.691 52.0093 112.691 52.252C112.691 52.46 112.587 52.46 112.379 52.252C112.102 52.1133 111.53 52.044 110.663 52.044C109.692 51.9747 109.086 51.8187 108.843 51.576C108.531 51.264 108.167 51.108 107.751 51.108C107.3 51.108 107.075 51.0213 107.075 50.848C107.075 50.7093 106.815 50.5707 106.295 50.432C105.879 50.3627 105.342 50.12 104.683 49.704C104.024 49.288 103.695 48.9933 103.695 48.82C103.695 48.612 103.626 48.4907 103.487 48.456C102.759 48.1787 102.482 47.832 102.655 47.416C102.69 47.2773 102.655 47.208 102.551 47.208C102.412 47.312 102.291 47.208 102.187 46.896C102.048 46.4453 102.066 46.1507 102.239 46.012C102.412 45.8387 102.378 45.4747 102.135 44.92C102.066 44.8507 102.014 44.816 101.979 44.816C101.979 44.8853 101.962 44.92 101.927 44.92C101.858 44.92 101.771 44.6947 101.667 44.244C101.563 43.7933 101.511 43.3947 101.511 43.048C101.511 42.9787 101.511 42.9093 101.511 42.84L101.615 42.424L101.667 42.476C101.771 42.684 101.892 42.684 102.031 42.476C102.204 42.268 102.118 41.9907 101.771 41.644C101.563 41.4013 101.459 41.2453 101.459 41.176C101.494 41.072 101.65 40.8987 101.927 40.656C102.308 40.344 102.499 40.1013 102.499 39.928C102.499 39.72 102.326 39.4947 101.979 39.252L101.459 38.836L101.979 38.368C102.36 38.056 102.551 37.7613 102.551 37.484C102.551 37.2413 102.672 37.224 102.915 37.432C103.227 37.6747 103.47 37.744 103.643 37.64C103.712 37.536 103.66 37.4667 103.487 37.432C103.244 37.3973 103.123 37.3627 103.123 37.328L103.591 36.86C103.972 36.548 104.094 36.392 103.955 36.392C103.92 36.392 103.851 36.392 103.747 36.392C103.574 36.4267 103.452 36.392 103.383 36.288C103.314 36.184 103.262 35.9587 103.227 35.612C103.192 35.2307 103.21 34.988 103.279 34.884C103.348 34.78 103.556 34.728 103.903 34.728C104.423 34.728 104.735 34.7627 104.839 34.832C104.978 34.8667 105.03 34.988 104.995 35.196C104.96 35.3347 105.116 35.5427 105.463 35.82C105.844 36.0627 105.983 36.2533 105.879 36.392C105.775 36.5653 105.81 36.652 105.983 36.652C106.191 36.652 106.295 36.8253 106.295 37.172C106.295 37.38 106.33 37.5187 106.399 37.588C106.468 37.6573 106.572 37.6573 106.711 37.588H106.815C107.023 37.588 107.127 37.8133 107.127 38.264C107.127 38.888 106.971 39.356 106.659 39.668C106.416 39.98 106.364 40.136 106.503 40.136C106.572 40.136 106.607 40.1707 106.607 40.24C106.607 40.2747 106.59 40.344 106.555 40.448C106.555 40.552 106.52 40.656 106.451 40.76C106.347 40.968 106.243 41.124 106.139 41.228C106.07 41.2973 106.018 41.3147 105.983 41.28C105.844 41.2107 105.723 41.2627 105.619 41.436C105.515 41.5747 105.619 41.748 105.931 41.956C106.278 42.164 106.312 42.3547 106.035 42.528C105.758 42.7013 105.74 42.788 105.983 42.788C106.191 42.788 106.295 42.9267 106.295 43.204C106.295 43.4813 106.208 43.62 106.035 43.62C105.723 43.62 105.723 43.776 106.035 44.088C106.243 44.296 106.468 44.4347 106.711 44.504C107.162 44.608 107.387 44.8853 107.387 45.336C107.387 45.6133 107.248 45.752 106.971 45.752C106.694 45.752 106.555 45.8387 106.555 46.012C106.555 46.2547 106.676 46.324 106.919 46.22C106.988 46.1853 107.092 46.168 107.231 46.168C107.543 46.168 107.82 46.5147 108.063 47.208C108.132 47.416 108.184 47.572 108.219 47.676C108.288 47.7453 108.375 47.8147 108.479 47.884C108.618 47.9533 108.756 48.0053 108.895 48.04C109.034 48.04 109.276 48.0573 109.623 48.092H110.091C111.339 48.092 112.171 47.6413 112.587 46.74C112.864 46.1853 113.142 44.972 113.419 43.1C113.696 41.1933 113.852 39.512 113.887 38.056C113.887 36.9467 113.939 36.4267 114.043 36.496C114.078 36.5307 114.13 36.5133 114.199 36.444C114.303 36.3747 114.407 36.2707 114.511 36.132C114.615 36.028 114.667 35.872 114.667 35.664C114.667 35.56 114.632 35.404 114.563 35.196C114.494 34.988 114.459 34.8493 114.459 34.78C114.459 34.6067 114.563 34.4507 114.771 34.312C115.36 33.896 115.655 33.8613 115.655 34.208C115.655 34.3813 115.828 34.5027 116.175 34.572C116.556 34.6067 116.834 34.5373 117.007 34.364C117.146 34.26 117.232 34.2427 117.267 34.312C117.267 34.3813 117.232 34.52 117.163 34.728C117.059 35.1093 117.076 35.2827 117.215 35.248C117.25 35.248 117.302 35.2307 117.371 35.196C117.579 35.092 117.752 35.1787 117.891 35.456C118.03 35.6987 118.307 35.82 118.723 35.82C119.208 35.82 119.694 35.9413 120.179 36.184C120.491 36.3573 120.682 36.5133 120.751 36.652C120.82 36.7907 120.855 37.068 120.855 37.484V38.16C120.786 39.4427 120.716 40.188 120.647 40.396C120.439 41.124 120.248 44.7293 120.075 51.212C120.075 51.836 120.058 52.512 120.023 53.24C120.023 53.9333 120.006 54.4707 119.971 54.852C119.971 55.1987 119.971 55.3893 119.971 55.424ZM106.815 35.3C106.815 35.1267 107.075 35.04 107.595 35.04C107.872 35.04 108.028 35.0573 108.063 35.092C108.132 35.1267 108.08 35.196 107.907 35.3C107.734 35.404 107.56 35.4907 107.387 35.56C107.214 35.5947 107.075 35.5947 106.971 35.56C106.867 35.4907 106.815 35.404 106.815 35.3ZM128.263 31.504C128.367 31.608 128.489 31.608 128.627 31.504C128.766 31.4 128.714 31.348 128.471 31.348C128.333 31.3827 128.263 31.4347 128.263 31.504ZM125.767 29.164C125.767 28.9907 125.629 28.904 125.351 28.904C125.074 28.904 124.935 28.9387 124.935 29.008L125.507 29.32C125.681 29.3547 125.767 29.3027 125.767 29.164ZM127.639 26.148L127.691 26.096C127.761 26.096 128.333 26.4427 129.407 27.136C130.621 27.968 131.297 28.384 131.435 28.384C131.574 28.384 131.626 28.4533 131.591 28.592C131.557 28.6613 131.557 28.7307 131.591 28.8C131.626 28.8347 131.713 28.8347 131.851 28.8C132.129 28.8 132.389 29.008 132.631 29.424C132.77 29.7707 132.839 30.0307 132.839 30.204C132.839 31.0013 132.389 31.66 131.487 32.18C130.967 32.492 130.551 32.648 130.239 32.648C129.893 32.648 129.442 32.5093 128.887 32.232C128.402 31.9893 128.021 31.868 127.743 31.868C127.501 31.868 127.379 31.7987 127.379 31.66C127.379 31.556 126.981 31.2267 126.183 30.672C125.247 30.048 124.779 29.3893 124.779 28.696C124.779 28.1067 125.109 27.6387 125.767 27.292C126.114 27.1187 126.287 26.876 126.287 26.564C126.287 26.2867 126.513 26.1827 126.963 26.252C127.414 26.2867 127.639 26.252 127.639 26.148ZM130.343 53.032C130.343 52.928 130.291 52.876 130.187 52.876C130.118 52.876 130.083 52.928 130.083 53.032C130.083 53.1013 130.118 53.136 130.187 53.136C130.291 53.136 130.343 53.1013 130.343 53.032ZM127.379 51.16C127.379 51.056 127.327 51.004 127.223 51.004C127.154 51.004 127.119 51.056 127.119 51.16C127.119 51.2293 127.154 51.264 127.223 51.264C127.327 51.264 127.379 51.2293 127.379 51.16ZM128.159 51.316C128.159 51.108 128.073 50.952 127.899 50.848C127.726 50.744 127.639 50.7787 127.639 50.952C127.639 51.16 127.726 51.316 127.899 51.42C128.073 51.524 128.159 51.4893 128.159 51.316ZM130.343 45.752C130.343 45.648 130.291 45.596 130.187 45.596C130.118 45.596 130.083 45.648 130.083 45.752C130.083 45.8213 130.118 45.856 130.187 45.856C130.291 45.856 130.343 45.8213 130.343 45.752ZM130.863 44.92C130.863 44.8507 130.829 44.816 130.759 44.816C130.655 44.816 130.603 44.8507 130.603 44.92C130.603 45.024 130.655 45.076 130.759 45.076C130.829 45.076 130.863 45.024 130.863 44.92ZM129.251 43.88C129.251 43.776 129.217 43.724 129.147 43.724C129.043 43.724 128.991 43.776 128.991 43.88C128.991 43.9493 129.043 43.984 129.147 43.984C129.217 43.984 129.251 43.9493 129.251 43.88ZM130.915 41.592C131.193 41.592 131.175 41.436 130.863 41.124L130.707 41.02C130.638 41.02 130.603 41.1067 130.603 41.28C130.603 41.488 130.707 41.592 130.915 41.592ZM128.783 40.656C128.887 40.76 129.009 40.76 129.147 40.656C129.113 40.5867 129.061 40.5347 128.991 40.5C128.853 40.5347 128.783 40.5867 128.783 40.656ZM130.395 39.876C130.534 40.0147 130.673 40.0147 130.811 39.876C130.95 39.7373 130.881 39.668 130.603 39.668C130.326 39.668 130.257 39.7373 130.395 39.876ZM126.235 39.616C126.374 39.4773 126.374 39.356 126.235 39.252C126.097 39.1133 126.027 39.1653 126.027 39.408C126.027 39.512 126.045 39.5987 126.079 39.668C126.114 39.7027 126.166 39.6853 126.235 39.616ZM126.027 37.796C126.027 38.0387 126.097 38.108 126.235 38.004C126.374 37.8653 126.374 37.7267 126.235 37.588C126.131 37.588 126.062 37.6573 126.027 37.796ZM126.287 37.12C126.287 37.0507 126.253 37.016 126.183 37.016C126.079 37.016 126.027 37.0507 126.027 37.12C126.027 37.224 126.079 37.276 126.183 37.276C126.253 37.276 126.287 37.224 126.287 37.12ZM126.183 35.664C126.253 35.664 126.287 35.612 126.287 35.508C126.287 35.404 126.253 35.352 126.183 35.352C126.079 35.352 126.027 35.404 126.027 35.508C126.027 35.612 126.079 35.664 126.183 35.664ZM128.991 34.936C128.991 34.8667 128.905 34.832 128.731 34.832C128.558 34.832 128.471 34.936 128.471 35.144C128.471 35.3867 128.61 35.3693 128.887 35.092L128.991 34.936ZM128.263 33.636C128.575 33.7747 128.731 33.9133 128.731 34.052C128.731 34.1907 129.078 34.4333 129.771 34.78C130.499 35.1267 130.863 35.352 130.863 35.456C130.863 35.6293 130.95 35.664 131.123 35.56H131.175C131.383 35.56 131.487 35.9933 131.487 36.86C131.487 37.7267 131.383 38.2293 131.175 38.368C130.933 38.576 130.933 38.7493 131.175 38.888C131.383 39.0613 131.487 40.3787 131.487 42.84C131.487 46.272 131.349 48.1613 131.071 48.508C130.863 48.7507 130.863 48.924 131.071 49.028C131.21 49.0627 131.279 49.496 131.279 50.328C131.279 51.8187 131.141 52.928 130.863 53.656C130.759 53.9333 130.638 54.1067 130.499 54.176C130.361 54.2107 130.083 54.1933 129.667 54.124C129.078 53.9853 128.697 54.072 128.523 54.384C128.281 54.8347 128.073 54.8867 127.899 54.54C127.795 54.3667 127.778 54.124 127.847 53.812C127.917 53.4653 127.865 53.292 127.691 53.292C127.449 53.292 127.241 53.4653 127.067 53.812L127.015 53.916C126.946 54.0893 126.911 54.1067 126.911 53.968C126.911 53.968 126.894 53.8813 126.859 53.708C126.825 53.292 126.703 53.188 126.495 53.396C126.461 53.4307 126.391 53.448 126.287 53.448C126.114 53.448 125.906 53.3267 125.663 53.084C125.455 52.8067 125.351 52.5813 125.351 52.408L125.403 52.356C125.403 52.3213 125.403 52.2867 125.403 52.252C125.473 52.148 125.455 52.096 125.351 52.096L125.091 52.148C125.022 52.1827 124.953 52.2 124.883 52.2C124.779 52.2 124.727 52.0787 124.727 51.836C124.727 51.8013 124.762 51.368 124.831 50.536C124.97 49.2187 125.039 48.2827 125.039 47.728C125.039 47.0347 125.091 46.688 125.195 46.688C125.265 46.688 125.299 46.6187 125.299 46.48C125.299 46.4107 125.282 46.2547 125.247 46.012C125.213 45.7693 125.195 45.596 125.195 45.492C125.195 45.2493 125.265 45.128 125.403 45.128H125.507C125.75 45.1973 125.906 45.0587 125.975 44.712C126.01 44.5733 126.01 44.4867 125.975 44.452C125.975 44.3827 125.941 44.348 125.871 44.348C125.802 44.3133 125.715 44.3133 125.611 44.348C125.577 44.3827 125.507 44.4 125.403 44.4C125.265 44.4 125.195 44.2787 125.195 44.036C125.195 43.8627 125.247 43.672 125.351 43.464C125.455 43.2213 125.559 43.1 125.663 43.1H125.715C125.923 43.1693 126.027 43.1173 126.027 42.944C126.027 42.8053 125.923 42.7013 125.715 42.632C125.438 42.632 125.438 42.58 125.715 42.476C125.923 42.4067 126.027 42.268 126.027 42.06C126.027 41.8867 125.941 41.852 125.767 41.956H125.715C125.646 41.956 125.611 41.6093 125.611 40.916C125.611 40.0147 125.629 39.2347 125.663 38.576C125.733 36.9467 125.837 35.8547 125.975 35.3C126.149 34.7107 126.409 34.416 126.755 34.416C126.894 34.416 127.015 34.4333 127.119 34.468C127.362 34.572 127.553 34.4507 127.691 34.104C127.865 33.7227 128.055 33.5667 128.263 33.636ZM144.734 30.048C144.734 29.7013 144.873 29.6493 145.15 29.892L145.306 30.204C145.306 30.3773 145.219 30.464 145.046 30.464C144.838 30.464 144.734 30.3253 144.734 30.048ZM152.95 50.588C153.019 50.588 153.054 50.536 153.054 50.432C153.054 50.328 153.019 50.276 152.95 50.276C152.846 50.276 152.794 50.328 152.794 50.432C152.794 50.536 152.846 50.588 152.95 50.588ZM151.182 49.652C151.182 49.548 151.147 49.496 151.078 49.496C150.974 49.496 150.922 49.548 150.922 49.652C150.922 49.7213 150.974 49.756 151.078 49.756C151.147 49.756 151.182 49.7213 151.182 49.652ZM149.83 49.652C149.83 49.548 149.795 49.496 149.726 49.496C149.622 49.496 149.57 49.548 149.57 49.652C149.57 49.7213 149.622 49.756 149.726 49.756C149.795 49.756 149.83 49.7213 149.83 49.652ZM150.454 49.548C150.662 49.34 150.662 49.132 150.454 48.924C150.315 48.7853 150.229 48.7507 150.194 48.82C150.159 48.8547 150.142 48.9933 150.142 49.236C150.142 49.4787 150.159 49.6347 150.194 49.704C150.229 49.7387 150.315 49.6867 150.454 49.548ZM141.718 48.664C141.787 48.664 141.822 48.5773 141.822 48.404C141.822 48.2307 141.718 48.144 141.51 48.144C141.267 48.144 141.285 48.2827 141.562 48.56L141.718 48.664ZM146.658 47.468C146.658 47.3987 146.606 47.364 146.502 47.364C146.398 47.364 146.346 47.3987 146.346 47.468C146.346 47.572 146.398 47.624 146.502 47.624C146.606 47.624 146.658 47.572 146.658 47.468ZM143.746 46.22C143.885 46.3587 144.023 46.3587 144.162 46.22C144.301 46.0813 144.231 46.012 143.954 46.012C143.677 46.012 143.607 46.0813 143.746 46.22ZM144.214 45.492C144.214 45.7347 144.283 45.804 144.422 45.7C144.561 45.5613 144.561 45.4227 144.422 45.284C144.318 45.284 144.249 45.3533 144.214 45.492ZM141.406 45.492C141.51 45.492 141.562 45.44 141.562 45.336C141.562 45.232 141.51 45.18 141.406 45.18C141.302 45.18 141.25 45.232 141.25 45.336C141.25 45.44 141.302 45.492 141.406 45.492ZM143.174 42.112C143.174 42.0427 143.122 42.008 143.018 42.008C142.914 42.008 142.862 42.0427 142.862 42.112C142.862 42.216 142.914 42.268 143.018 42.268C143.122 42.268 143.174 42.216 143.174 42.112ZM146.918 40.5C146.918 40.4307 146.866 40.396 146.762 40.396C146.693 40.396 146.658 40.4307 146.658 40.5C146.658 40.604 146.693 40.656 146.762 40.656C146.866 40.656 146.918 40.604 146.918 40.5ZM141.822 40.916C141.995 40.916 142.082 40.8293 142.082 40.656C142.082 40.4827 141.995 40.396 141.822 40.396C141.649 40.396 141.562 40.4827 141.562 40.656C141.562 40.8293 141.649 40.916 141.822 40.916ZM141.822 38.628C141.822 38.5587 141.77 38.524 141.666 38.524C141.597 38.524 141.562 38.5587 141.562 38.628C141.562 38.732 141.597 38.784 141.666 38.784C141.77 38.784 141.822 38.732 141.822 38.628ZM153.99 36.652C154.094 36.652 154.146 36.6 154.146 36.496C154.146 36.392 154.094 36.34 153.99 36.34C153.921 36.34 153.886 36.392 153.886 36.496C153.886 36.6 153.921 36.652 153.99 36.652ZM153.314 36.496C153.418 36.5653 153.47 36.5307 153.47 36.392C153.435 36.1493 153.349 35.9587 153.21 35.82C153.106 35.8547 153.054 35.9413 153.054 36.08C153.054 36.2533 153.141 36.392 153.314 36.496ZM139.638 35.196C139.777 35.2653 139.898 35.2827 140.002 35.248C140.141 35.1787 140.175 35.1267 140.106 35.092C140.071 35.0227 139.967 35.0053 139.794 35.04C139.482 35.04 139.43 35.092 139.638 35.196ZM153.21 35.04C153.279 35.04 153.314 34.988 153.314 34.884C153.314 34.78 153.279 34.728 153.21 34.728C153.106 34.728 153.054 34.78 153.054 34.884C153.054 34.988 153.106 35.04 153.21 35.04ZM152.534 35.3C152.811 35.3 152.811 35.1613 152.534 34.884L152.222 34.728C152.014 34.728 151.979 34.832 152.118 35.04C152.222 35.2133 152.361 35.3 152.534 35.3ZM141.822 35.04C141.822 34.832 141.735 34.728 141.562 34.728C141.354 34.728 141.25 34.832 141.25 35.04C141.25 35.2133 141.354 35.3 141.562 35.3C141.735 35.3 141.822 35.2133 141.822 35.04ZM150.506 35.04C150.714 34.9707 150.835 34.9187 150.87 34.884C150.905 34.8493 150.905 34.8147 150.87 34.78C150.835 34.7453 150.714 34.676 150.506 34.572C150.402 34.5027 150.142 34.468 149.726 34.468C149.345 34.468 149.067 34.4853 148.894 34.52C148.859 34.52 148.79 34.5373 148.686 34.572L148.114 34.728H148.166H148.582C148.651 34.728 148.894 34.8147 149.31 34.988C149.691 35.1613 150.09 35.1787 150.506 35.04ZM151.182 33.948C150.939 33.948 150.887 34.0173 151.026 34.156C151.165 34.2947 151.286 34.2947 151.39 34.156C151.355 34.052 151.286 33.9827 151.182 33.948ZM145.306 33.428C145.549 33.428 145.549 33.272 145.306 32.96C145.237 32.8907 145.185 32.856 145.15 32.856C145.081 32.856 145.046 32.96 145.046 33.168C145.046 33.3413 145.133 33.428 145.306 33.428ZM146.346 31.92C146.346 31.8507 146.311 31.816 146.242 31.816C146.138 31.816 146.086 31.8507 146.086 31.92C146.086 32.024 146.138 32.076 146.242 32.076C146.311 32.076 146.346 32.024 146.346 31.92ZM145.826 32.232C145.826 31.9547 145.739 31.764 145.566 31.66C145.497 31.6253 145.427 31.6427 145.358 31.712C145.323 31.7467 145.306 31.816 145.306 31.92C145.306 32.1973 145.393 32.388 145.566 32.492C145.635 32.5267 145.687 32.5267 145.722 32.492C145.791 32.4227 145.826 32.336 145.826 32.232ZM143.486 30.62C144.041 29.9613 144.353 29.7533 144.422 29.996C144.457 30.0653 144.439 30.1693 144.37 30.308C144.335 30.4467 144.353 30.5507 144.422 30.62C144.491 30.6893 144.665 30.724 144.942 30.724C145.427 30.724 145.791 30.88 146.034 31.192C146.207 31.4 146.294 31.504 146.294 31.504C146.329 31.504 146.311 31.4 146.242 31.192V31.088L146.19 30.984C146.19 30.7413 146.329 30.62 146.606 30.62C146.883 30.62 147.195 30.7587 147.542 31.036C147.993 31.348 148.218 31.9027 148.218 32.7V33.844L149.934 33.74C150.038 33.74 150.159 33.74 150.298 33.74C150.471 33.7053 150.593 33.688 150.662 33.688C151.355 33.688 151.806 33.8267 152.014 34.104C152.257 34.3467 152.517 34.468 152.794 34.468C153.071 34.468 153.366 34.6587 153.678 35.04C153.851 35.2827 154.077 35.456 154.354 35.56C154.666 35.6293 154.891 35.612 155.03 35.508H155.082C155.255 35.508 155.498 35.6293 155.81 35.872C156.122 36.1147 156.278 36.3053 156.278 36.444C156.278 36.6173 156.174 36.7907 155.966 36.964C155.758 37.1027 155.533 37.1547 155.29 37.12C155.151 37.12 155.03 37.2587 154.926 37.536C154.891 37.6747 154.787 37.744 154.614 37.744C154.441 37.744 154.111 37.64 153.626 37.432C153.141 37.1893 152.846 37.068 152.742 37.068C152.638 37.068 152.586 37.1027 152.586 37.172C152.517 37.3453 152.274 37.432 151.858 37.432C151.199 37.432 150.818 37.2933 150.714 37.016C150.645 36.808 150.593 36.704 150.558 36.704C150.523 36.704 150.454 36.808 150.35 37.016C150.246 37.224 150.09 37.3107 149.882 37.276C149.674 37.2413 149.535 37.2933 149.466 37.432C149.327 37.6053 148.963 37.64 148.374 37.536C147.819 37.432 147.386 37.588 147.074 38.004C146.797 38.3853 146.658 38.7147 146.658 38.992C146.658 39.3733 146.762 39.3733 146.97 38.992C147.074 38.8187 147.161 38.6107 147.23 38.368L147.282 38.316C147.351 38.316 147.386 38.8707 147.386 39.98C147.317 41.4707 147.213 42.2853 147.074 42.424C146.935 42.6667 146.953 42.788 147.126 42.788C147.334 42.788 147.438 42.892 147.438 43.1C147.438 43.1693 147.369 43.204 147.23 43.204C147.161 43.204 147.126 43.464 147.126 43.984C147.126 44.4 147.143 44.7467 147.178 45.024C147.213 45.3707 147.23 45.804 147.23 46.324C147.23 46.7747 147.178 47.052 147.074 47.156C146.935 47.26 146.987 47.4507 147.23 47.728C147.542 48.04 147.698 48.2827 147.698 48.456C147.698 48.56 147.837 48.612 148.114 48.612C148.634 48.612 149.431 48.456 150.506 48.144C150.818 48.04 151.078 47.988 151.286 47.988C151.459 47.988 151.719 48.0747 152.066 48.248C152.482 48.56 152.759 48.6467 152.898 48.508C153.002 48.404 153.054 48.4387 153.054 48.612C153.054 48.8547 152.967 48.976 152.794 48.976C152.621 48.976 152.534 49.0627 152.534 49.236C152.534 49.3747 152.673 49.444 152.95 49.444C153.054 49.444 153.21 49.444 153.418 49.444C153.626 49.4093 153.765 49.392 153.834 49.392C154.077 49.392 154.215 49.4267 154.25 49.496C154.354 49.6693 154.683 49.756 155.238 49.756C155.758 49.756 156.018 49.9293 156.018 50.276C156.018 50.4493 155.914 50.64 155.706 50.848C154.735 51.5067 154.181 52.0787 154.042 52.564C153.903 52.876 153.747 52.9453 153.574 52.772C153.435 52.564 153.331 52.5813 153.262 52.824C153.158 53.1013 153.002 53.24 152.794 53.24C152.621 53.24 152.586 53.1533 152.69 52.98C152.759 52.9107 152.707 52.8413 152.534 52.772L152.014 52.72C151.459 52.72 151.182 52.7893 151.182 52.928C151.182 53.136 150.645 53.24 149.57 53.24C148.703 53.24 148.218 53.1533 148.114 52.98C147.941 52.772 147.767 52.7547 147.594 52.928C147.559 52.9627 147.49 52.98 147.386 52.98C147.005 52.98 146.259 52.7027 145.15 52.148C143.937 51.5587 143.035 51.0213 142.446 50.536C141.891 50.0507 141.493 49.5133 141.25 48.924C141.042 48.404 141.094 48.0227 141.406 47.78C141.614 47.6067 141.718 47.5027 141.718 47.468C141.718 47.3987 141.562 47.2773 141.25 47.104C140.903 46.896 140.73 46.4973 140.73 45.908C140.73 45.804 140.765 45.0933 140.834 43.776C140.973 41.6613 141.059 40.4827 141.094 40.24C141.267 39.4427 141.354 38.8707 141.354 38.524C141.354 38.0733 141.233 37.848 140.99 37.848H140.938C140.626 37.9173 140.47 37.8653 140.47 37.692C140.47 37.588 140.071 37.4667 139.274 37.328C138.685 37.224 138.147 37.0333 137.662 36.756C137.211 36.444 136.986 36.1667 136.986 35.924C136.986 35.82 137.315 35.768 137.974 35.768C138.147 35.7333 138.234 35.6813 138.234 35.612C138.13 35.4733 138.251 35.3347 138.598 35.196C138.771 35.1267 138.789 35.092 138.65 35.092C138.546 35.0573 138.355 35.04 138.078 35.04C137.454 35.0053 137.125 34.9707 137.09 34.936C137.055 34.9013 137.159 34.7627 137.402 34.52C137.749 34.1733 138.719 33.9307 140.314 33.792C141.978 33.6533 142.827 33.5667 142.862 33.532C143.105 33.324 143.174 32.9427 143.07 32.388C143.001 32.2493 142.931 32.18 142.862 32.18C142.689 32.284 142.602 32.2493 142.602 32.076C142.602 31.9027 142.741 31.816 143.018 31.816C143.295 31.816 143.434 31.712 143.434 31.504C143.434 31.3307 143.347 31.296 143.174 31.4C142.827 31.608 142.827 31.4693 143.174 30.984C143.243 30.88 143.347 30.7587 143.486 30.62Z" fill="white"/>
</svg>
